<svg width="85" height="84" viewBox="0 0 85 84" fill="none" xmlns="http://www.w3.org/2000/svg">
<path fill-rule="evenodd" clip-rule="evenodd" d="M42.5 0C19.3031 0 0.5 18.8031 0.5 42C0.5 65.1969 19.3031 84 42.5 84C65.6969 84 84.5 65.1969 84.5 42C84.5 18.8031 65.6969 0 42.5 0ZM40.2169 60.4369C40.8227 61.0419 41.6438 61.3818 42.5 61.3818C43.3562 61.3818 44.1773 61.0419 44.7831 60.4369L57.7062 47.5138C58.0236 47.2181 58.2782 46.8614 58.4548 46.4651C58.6313 46.0688 58.7263 45.641 58.7339 45.2072C58.7416 44.7734 58.6618 44.3425 58.4993 43.9402C58.3368 43.5379 58.095 43.1725 57.7882 42.8657C57.4814 42.5589 57.1159 42.317 56.7137 42.1545C56.3114 41.9921 55.8805 41.9123 55.4467 41.9199C55.0129 41.9276 54.5851 42.0225 54.1888 42.1991C53.7925 42.3757 53.4358 42.6303 53.14 42.9477L45.7308 50.3569V25.8462C45.7308 24.9893 45.3904 24.1675 44.7845 23.5617C44.1786 22.9558 43.3569 22.6154 42.5 22.6154C41.6432 22.6154 40.8214 22.9558 40.2155 23.5617C39.6096 24.1675 39.2692 24.9893 39.2692 25.8462V50.3569L31.86 42.9477C31.2476 42.377 30.4375 42.0663 29.6005 42.0811C28.7635 42.0959 27.9649 42.4349 27.373 43.0269C26.7811 43.6188 26.442 44.4174 26.4272 45.2544C26.4125 46.0914 26.7232 46.9014 27.2938 47.5138L40.2169 60.4369Z" fill="white"/>
</svg>
