<svg width="77" height="44" viewBox="0 0 77 44" fill="none" xmlns="http://www.w3.org/2000/svg">
<path d="M61 21.5547L57.9238 15.328L55 10L52.0762 15.328L49 21.5103L54.9257 24.8071L61 21.5547Z" fill="#FF5C00"/>
<path d="M54.9257 26.0282C54.8514 26.0282 54.7771 26.0282 54.699 25.9879L49.5238 23.1385L54.9963 34L57.8829 28.2247L60.4315 23.1788L55.182 25.9436C55.1077 25.9839 54.9963 26.0242 54.9182 26.0242L54.9257 26.0282Z" fill="#FF5C00"/>
<path d="M22 8.66667V35.3333M15.3333 29.0711L17.2867 30.5356C19.8889 32.4889 24.1089 32.4889 26.7133 30.5356C29.3178 28.5822 29.3178 25.4178 26.7133 23.4644C25.4133 22.4867 23.7067 22 22 22C20.3889 22 18.7778 21.5111 17.5489 20.5356C15.0911 18.5822 15.0911 15.4178 17.5489 13.4644C20.0067 11.5111 23.9933 11.5111 26.4511 13.4644L27.3733 14.1978M42 22C42 24.6264 41.4827 27.2272 40.4776 29.6537C39.4725 32.0802 37.9993 34.285 36.1421 36.1421C34.285 37.9993 32.0802 39.4725 29.6537 40.4776C27.2272 41.4827 24.6264 42 22 42C19.3736 42 16.7728 41.4827 14.3463 40.4776C11.9198 39.4725 9.71504 37.9993 7.85786 36.1421C6.00069 34.285 4.5275 32.0802 3.52241 29.6537C2.51732 27.2272 2 24.6264 2 22C2 16.6957 4.10714 11.6086 7.85786 7.85786C11.6086 4.10714 16.6957 2 22 2C27.3043 2 32.3914 4.10714 36.1421 7.85786C39.8929 11.6086 42 16.6957 42 22Z" stroke="#FF5C00" stroke-width="3" stroke-linecap="round" stroke-linejoin="round"/>
<path d="M75 22C75 24.6264 74.4827 27.2272 73.4776 29.6537C72.4725 32.0802 70.9993 34.285 69.1421 36.1421C67.285 37.9993 65.0802 39.4725 62.6537 40.4776C60.2272 41.4827 57.6264 42 55 42C52.3736 42 49.7728 41.4827 47.3463 40.4776C44.9198 39.4725 42.715 37.9993 40.8579 36.1421C39.0007 34.285 37.5275 32.0802 36.5224 29.6537C35.5173 27.2272 35 24.6264 35 22C35 16.6957 37.1071 11.6086 40.8579 7.85786C44.6086 4.10714 49.6957 2 55 2C60.3043 2 65.3914 4.10714 69.1421 7.85786C72.8929 11.6086 75 16.6957 75 22Z" stroke="#FF5C00" stroke-width="3" stroke-linecap="round" stroke-linejoin="round"/>
</svg>
