<svg width="64" height="64" viewBox="0 0 64 64" fill="none" xmlns="http://www.w3.org/2000/svg">
<path d="M32 64C49.6731 64 64 49.6731 64 32C64 14.3269 49.6731 0 32 0C14.3269 0 0 14.3269 0 32C0 49.6731 14.3269 64 32 64Z" fill="#3861FB"/>
<path d="M43.824 35.1216C43.2592 35.4736 42.592 35.5184 42.0848 35.2368C41.44 34.8784 41.0864 34.04 41.0864 32.872V29.3808C41.0864 27.696 40.4096 26.496 39.2784 26.1728C37.3616 25.6224 35.9184 27.9328 35.3776 28.8L31.9968 34.2016V27.6C31.9584 26.0816 31.4576 25.1728 30.5088 24.8992C29.8784 24.7184 28.9376 24.7904 28.024 26.1696L20.448 38.1536C19.4351 36.2608 18.9064 34.1468 18.9088 32C18.9088 24.7808 24.7808 18.9088 31.9968 18.9088C39.2128 18.9088 45.0848 24.7808 45.0848 32L45.088 32.0352V32.0704C45.1552 33.4688 44.696 34.5808 43.824 35.1216ZM47.9936 32.0016V31.928C47.952 23.1376 40.792 16 31.9952 16C23.1744 16 16 23.1776 16 32C16 40.8224 23.176 48 31.9968 48C36.0448 48 39.9072 46.4848 42.872 43.7328C43.012 43.6031 43.1252 43.447 43.2049 43.2735C43.2846 43.1001 43.3294 42.9126 43.3367 42.7218C43.344 42.5311 43.3136 42.3407 43.2473 42.1617C43.181 41.9827 43.0801 41.8184 42.9504 41.6784C42.8207 41.5384 42.6646 41.4252 42.4911 41.3455C42.3177 41.2658 42.1302 41.221 41.9394 41.2137C41.7487 41.2064 41.5583 41.2368 41.3793 41.3031C41.2003 41.3694 41.036 41.4703 40.896 41.6C38.4787 43.8476 35.2992 45.0952 31.9984 45.0912C30.1598 45.0917 28.3418 44.7039 26.6634 43.9531C24.9851 43.2023 23.4843 42.1054 22.2592 40.7344L29.0912 29.9264V34.9088C29.0912 37.3024 30.032 38.0768 30.8224 38.3008C31.6128 38.528 32.8208 38.3728 34.0896 36.344L37.8464 30.344C37.9664 30.1488 38.0784 29.9824 38.1792 29.8384V32.872C38.1792 35.1088 39.088 36.8976 40.6752 37.7792C42.1024 38.5744 43.8992 38.5024 45.3632 37.592C47.1392 36.488 48.0944 34.4528 47.9952 32L47.9936 32.0016Z" fill="white"/>
</svg>
