<svg width="150" height="40" viewBox="0 0 150 40" fill="none" xmlns="http://www.w3.org/2000/svg">
<path d="M19.7216 15.469C19.7216 16.8599 18.6143 17.9769 17.2355 17.9979C15.8567 17.9979 14.7494 16.881 14.7494 15.49C14.7494 14.0991 15.8567 12.9822 17.2355 12.9822C18.5934 12.9611 19.7216 14.078 19.7216 15.469Z" fill="white"/>
<path d="M62.0056 15.7007C61.5878 14.0991 60.5641 12.9189 58.5586 12.9189C55.592 12.9189 54.3594 15.5532 54.3594 18.2297C54.3594 20.9062 55.592 23.5405 58.5586 23.5405C60.7104 23.5405 61.9012 21.9178 62.0892 19.8946H64.4499C64.2619 23.2455 61.9012 25.5426 58.5586 25.5426C54.4012 25.5426 51.9151 22.2128 51.9151 18.2297C51.9151 14.2466 54.4012 10.9168 58.5586 10.9168C61.6714 10.9379 64.1366 12.6871 64.429 15.6797H62.0056V15.7007Z" fill="white"/>
<path d="M65.8914 20.1686C65.8914 17.0706 67.7299 14.8578 70.9472 14.8578C74.1644 14.8578 76.0029 17.0917 76.0029 20.1686C76.0029 23.2666 74.1644 25.5005 70.9472 25.5005C67.7299 25.5005 65.8914 23.2666 65.8914 20.1686ZM73.7884 20.1686C73.7884 18.4194 72.9109 16.607 70.9472 16.607C68.9834 16.607 68.1059 18.4194 68.1059 20.1686C68.1059 21.9178 68.9834 23.7513 70.9472 23.7513C72.9109 23.7513 73.7884 21.9178 73.7884 20.1686Z" fill="white"/>
<path d="M77.904 11.254H80.1185V13.3615H77.904V11.254ZM77.904 15.1107H80.1185V25.2265H77.904V15.1107Z" fill="white"/>
<path d="M84.6101 15.1106V16.6069L84.6519 16.6491C85.2995 15.5321 86.4903 14.8367 87.7647 14.8577C89.9374 14.8577 91.3162 16.0379 91.3162 18.2929V25.2476H89.1017V18.883C89.06 17.3024 88.4332 16.6069 87.138 16.6069C85.6756 16.6069 84.7146 17.7871 84.7146 19.2623V25.2265H82.5001V15.1106H84.6101Z" fill="white"/>
<path d="M106.045 25.2265H104.499L104.123 23.5827C102.827 25.0579 101.637 25.5637 99.9443 25.5637C95.787 25.5637 93.3009 22.2339 93.3009 18.2508C93.3009 14.2677 95.787 10.9168 99.9443 10.9168C102.974 10.9168 105.501 12.5395 105.877 15.6797H103.517C103.287 13.8462 101.699 12.8978 99.9443 12.8978C96.9778 12.8978 95.7243 15.5321 95.7243 18.2086C95.7243 20.8851 96.9778 23.5194 99.9443 23.5194C102.43 23.5616 103.788 22.0442 103.83 19.6839H100.153V17.8714H106.045V25.2265Z" fill="white"/>
<path d="M110.098 20.7376C110.098 22.3182 110.954 23.7302 112.793 23.7302C114.067 23.7302 114.84 23.1612 115.237 22.0442H117.326C116.845 24.2571 114.986 25.4794 112.793 25.4794C109.659 25.4794 107.883 23.2666 107.883 20.1686C107.883 17.3024 109.742 14.8367 112.73 14.8367C115.884 14.8367 117.827 17.7239 117.472 20.7376H110.098ZM115.258 19.2624C115.174 17.8504 114.234 16.5859 112.73 16.5859C111.205 16.5859 110.16 17.7661 110.098 19.2624H115.258Z" fill="white"/>
<path d="M125.933 18.5037C125.766 17.2603 124.868 16.607 123.635 16.607C122.486 16.607 120.877 17.2181 120.877 20.295C120.877 21.981 121.609 23.7513 123.531 23.7513C124.805 23.7513 125.703 22.8872 125.912 21.4331H128.127C127.709 24.0463 126.1 25.5005 123.531 25.5005C120.397 25.5005 118.663 23.2455 118.663 20.274C118.663 17.2181 120.313 14.8367 123.614 14.8367C125.933 14.8367 127.918 16.0169 128.127 18.5037H125.933Z" fill="white"/>
<path d="M129.986 11.254H132.201V19.1992L136.212 15.1107H138.928L135.084 18.8198L139.304 25.2054H136.588L133.517 20.295L132.201 21.5806V25.2054H129.986V11.254Z" fill="white"/>
<path d="M139.889 20.1686C139.889 17.0706 141.727 14.8578 144.944 14.8578C148.162 14.8578 150 17.0917 150 20.1686C150 23.2666 148.162 25.5005 144.944 25.5005C141.727 25.5005 139.889 23.2666 139.889 20.1686ZM147.806 20.1686C147.806 18.4194 146.929 16.607 144.944 16.607C142.96 16.607 142.103 18.4194 142.103 20.1686C142.103 21.9178 142.981 23.7513 144.944 23.7513C146.908 23.7513 147.806 21.9178 147.806 20.1686Z" fill="white"/>
<path fill-rule="evenodd" clip-rule="evenodd" d="M19.9096 39.9999C30.8567 39.9577 39.6937 30.9588 39.6519 19.9157C39.6101 8.87259 30.6895 -0.0420005 19.7425 0.000148851C8.79541 0.0422982 -0.0416351 9.04118 0.000147557 20.0843C0.0419303 31.1274 8.96253 40.042 19.9096 39.9999ZM19.8887 38.5036C30.021 38.4404 38.1895 30.1369 38.1477 19.9157C38.106 9.69453 29.8539 1.45433 19.7425 1.49648C9.61015 1.55971 1.44163 9.86312 1.48341 20.0843C1.5252 30.3055 9.75639 38.5668 19.8887 38.5036Z" fill="white"/>
<path d="M20.1603 2.69768C21.3302 2.48693 22.521 2.48693 23.6909 2.69768C24.8608 2.88735 26.0099 3.26669 27.0544 3.83571C28.099 4.4258 28.9973 5.20556 29.8957 5.94317C30.794 6.68079 31.6923 7.43947 32.5489 8.26138C33.4263 9.0833 34.1784 9.98951 34.8051 11.0011C35.4528 12.0127 35.975 13.0875 36.3929 14.2044C37.1867 16.4594 37.3956 18.883 37.0405 21.2434H36.9151C36.5809 18.9884 35.9959 16.7756 35.2021 14.6259C34.826 13.5722 34.3664 12.5395 33.865 11.549C33.3218 10.5585 32.7369 9.58909 32.0892 8.66181C31.4207 7.71345 30.6269 6.89153 29.6867 6.21714C28.7675 5.54275 27.6812 5.12126 26.6575 4.69977C25.6338 4.27828 24.5893 3.87786 23.5029 3.56174C22.4165 3.24562 21.3302 3.01379 20.1812 2.78197L20.1603 2.69768Z" fill="white"/>
<path d="M19.8887 10.1371C20.8079 10.2003 24.1505 11.2962 25.0071 11.8863C24.2968 9.7788 21.8734 9.50482 19.8887 10.1371Z" fill="white"/>
<path fill-rule="evenodd" clip-rule="evenodd" d="M25.2535 11.9827C26.5686 12.4981 27.8642 13.0057 29.1227 13.3825C36.0659 15.3025 35.4628 19.1033 32.1179 22.3207C31.6631 22.8002 31.1854 23.2686 30.7458 23.6995L30.7411 23.7041L30.7293 23.7156L30.7251 23.7196C30.3138 24.1225 29.9369 24.4917 29.645 24.805C27.0127 27.5236 22.3121 32.8133 23.0851 38.2295C15.9193 39.9998 8.04331 35.8691 4.74248 30.5373C6.29629 26.9858 6.55389 23.8825 6.89254 19.803L6.89319 19.7952C7.09719 15.5237 7.96185 11.9603 15.0628 9.98951C16.6088 9.6102 18.2383 9.75767 19.8678 10.1371C21.3511 9.77876 23.0642 9.75767 23.9834 10.5586C24.6102 11.0854 24.9235 11.528 25.0071 11.8863L25.2535 11.9827ZM17.2146 19.0305C19.1784 19.0305 20.7661 17.4288 20.7661 15.4478C20.7661 13.4668 19.1784 11.8651 17.2146 11.8651C15.2508 11.8651 13.6631 13.4668 13.6631 15.4478C13.6631 17.4288 15.2508 19.0305 17.2146 19.0305ZM30.6895 19.0094C30.6895 19.4309 30.3553 19.7892 29.9374 19.7892C29.5196 19.7892 29.1644 19.452 29.1644 19.0305C29.1644 18.609 29.4987 18.2508 29.9165 18.2508C30.3344 18.2297 30.6895 18.5879 30.6895 19.0094ZM30.4179 22.6764C31.5043 22.1706 32.528 21.5173 33.4472 20.7165L33.4054 20.6743C32.4444 21.3908 31.3998 21.9809 30.2926 22.4024C29.2062 22.8661 28.0781 23.2033 26.9082 23.4562C25.7592 23.688 24.5892 23.7934 23.4193 23.7512C22.2703 23.7091 21.1004 23.4772 20.0976 22.8239L20.0558 22.8661C20.8706 23.7934 22.145 24.2359 23.3775 24.3413C24.6101 24.4467 25.8427 24.2359 27.0126 23.9198C28.1826 23.6248 29.3316 23.2033 30.4179 22.6764Z" fill="white"/>
</svg>
