<svg width="236" height="40" viewBox="0 0 236 40" fill="none" xmlns="http://www.w3.org/2000/svg">
<path d="M34.7649 23.9147C34.057 24.3411 33.2311 24.4186 32.6019 24.0698C31.8154 23.6047 31.3434 22.5581 31.3434 21.124V16.7442C31.3434 14.6512 30.5176 13.1395 29.1018 12.7519C26.7029 12.0543 24.8939 14.9612 24.2253 16.0465L19.978 22.7519V14.4961C19.9387 12.5969 19.3095 11.4729 18.1296 11.124C17.3431 10.8915 16.1633 11.0078 15.0228 12.7132L5.54508 27.6744C4.28662 25.3101 3.61806 22.6744 3.61806 20C3.61806 10.969 10.9722 3.64341 19.978 3.64341C28.9838 3.64341 36.3379 10.969 36.3379 20V20.0388V20.0775C36.4166 21.8217 35.866 23.2171 34.7649 23.9147ZM39.956 20V19.9612V19.9225C39.9167 8.95349 30.9502 0 19.978 0C8.96651 0 0 8.95349 0 20C0 31.0077 8.96651 40 19.978 40C25.0512 40 29.849 38.1008 33.5457 34.6512C34.293 33.9535 34.3323 32.8295 33.6244 32.093C32.9558 31.3566 31.8154 31.3178 31.0682 31.9767C31.0682 31.9767 31.0682 31.9767 31.0288 32.0155C28.04 34.8062 24.0287 36.3953 19.8994 36.3953C15.0622 36.3953 10.7362 34.3023 7.74738 30.969L16.2813 17.4806V23.7209C16.2813 26.7054 17.4611 27.6744 18.4443 27.9457C19.4274 28.2171 20.9218 28.0233 22.5342 25.5039L27.2141 18.0233C27.3714 17.7907 27.4894 17.5581 27.6467 17.4031V21.2016C27.6467 23.9922 28.7872 26.2403 30.7535 27.3256C32.5232 28.3333 34.7649 28.217 36.6132 27.093C38.8942 25.6201 40.1133 23.062 39.956 20ZM67.7994 13.1783C68.2713 13.4496 68.7039 14.1085 68.7039 14.6899C68.7039 15.6202 67.9174 16.3954 67.0128 16.3954C66.7769 16.3954 66.5802 16.3178 66.3836 16.2791C65.3218 15.5039 63.9847 15 62.5689 15C59.2261 15 56.9452 17.6744 56.9452 21.0078C56.9452 24.3411 59.2655 26.9767 62.5689 26.9767C64.2206 26.9767 65.7151 26.3178 66.8162 25.2713C67.0915 25.0775 67.4454 24.9612 67.7994 24.9612C68.7039 24.9612 69.4118 25.6589 69.4118 26.5504C69.4118 27.1318 69.0578 27.6357 68.6252 27.907C67.0128 29.2636 64.8499 30.155 62.6082 30.155C57.4958 30.155 53.3271 26.0077 53.3271 20.8915C53.3271 15.7752 57.4958 11.6279 62.6082 11.6279C64.4959 11.5891 66.305 12.1705 67.7994 13.1783ZM77.1591 17.0543C80.6592 17.0543 83.5694 19.9612 83.5694 23.5659C83.5694 27.1318 80.6199 30.1938 77.1591 30.1938C73.5018 30.1938 70.4736 27.1705 70.4736 23.5659C70.4736 19.9612 73.5018 17.0543 77.1591 17.0543ZM77.1198 26.9767C78.6536 26.9767 79.9513 25.5426 79.9513 23.6046C79.9513 21.6667 78.6536 20.4264 77.1198 20.4264C75.4681 20.4264 74.0917 21.6279 74.0917 23.6046C74.0917 25.5039 75.4681 26.9767 77.1198 26.9767ZM85.7717 28.1783V19.031C85.7717 18.0233 86.5582 17.2093 87.5807 17.2093C88.5639 17.2093 89.3898 18.0233 89.3898 19.031V28.1783C89.3898 29.186 88.5639 30 87.5807 30C86.5976 30 85.7717 29.1473 85.7717 28.1783ZM85.4964 13.7597C85.4964 12.5581 86.4403 11.6279 87.5807 11.6279C88.7605 11.6279 89.7044 12.5969 89.7044 13.7597C89.7044 14.9225 88.7605 15.8527 87.5807 15.8527C86.4009 15.8139 85.4964 14.8837 85.4964 13.7597ZM96.3113 23.217V28.1783C96.3113 29.186 95.4854 30 94.5023 30C93.5191 30 92.6932 29.186 92.6932 28.1783V18.6046C92.6932 17.8295 93.3225 17.2093 94.109 17.2093C94.8955 17.2093 95.4854 17.8682 95.4854 18.6046C96.9405 17.2481 98.2383 17.0543 99.4574 17.0543C103.075 17.0543 104.688 19.7287 104.688 22.7907V28.1783C104.688 29.186 103.862 30 102.879 30C101.896 30 101.07 29.186 101.07 28.1783V23.217C101.07 21.6667 100.873 20.3488 98.5922 20.3488C96.9798 20.3488 96.3113 21.6667 96.3113 23.217ZM116.407 25.1163C115.975 25.1163 115.699 24.9225 115.463 24.6512L111.255 20.155V28.1783C111.255 29.186 110.43 30 109.446 30C108.463 30 107.637 29.186 107.637 28.1783V12.2868C107.755 12.0155 108.031 11.8217 108.306 11.8217C108.621 11.8217 108.896 12.093 109.092 12.2868L115.817 19.7287C116.014 19.9612 116.25 20.0775 116.407 20.0775C116.525 20.0775 116.801 19.9612 116.997 19.7287L123.722 12.2868C123.919 12.093 124.155 11.8217 124.509 11.8217C124.823 11.8217 125.098 12.0155 125.177 12.2868V28.1783C125.177 29.186 124.391 30 123.368 30C122.385 30 121.559 29.186 121.559 28.1783V20.155L117.351 24.6512C117.036 24.9225 116.761 25.1163 116.407 25.1163ZM133.79 26.9767C135.402 26.9767 136.779 25.5426 136.779 23.6046C136.779 21.6667 135.363 20.3876 133.79 20.3876C132.217 20.3876 130.919 21.7054 130.919 23.6046C130.919 25.4651 132.177 26.9767 133.79 26.9767ZM137.644 28.6047L137.565 28.1783C136.857 29.5349 134.616 30.155 133.2 30.155C129.818 30.155 127.301 27.1318 127.301 23.5271C127.301 19.9612 129.857 17.0155 133.396 17.0155C133.986 17.0155 136.031 17.1705 137.604 18.9922L137.683 18.5659C137.683 17.7907 138.273 17.1705 139.059 17.1705C139.846 17.1705 140.475 17.8295 140.475 18.5659V28.5659C140.475 29.3411 139.846 29.9612 139.059 29.9612C138.234 30 137.644 29.3411 137.644 28.6047ZM150.425 20.3488H150.032C147.751 20.4651 147.318 21.7442 147.318 23.217V28.1783C147.318 29.186 146.492 30 145.509 30C144.526 30 143.7 29.186 143.7 28.1783V18.6046C143.7 17.8295 144.329 17.2093 145.116 17.2093C145.902 17.2093 146.492 17.8682 146.492 18.6046C147.829 17.3643 148.931 17.093 150.032 17.0543H150.386C151.251 17.0543 152.037 17.7907 152.037 18.7209C152.077 19.5736 151.29 20.3488 150.425 20.3488ZM164.386 27.3256C164.543 27.5969 164.661 27.8682 164.661 28.1783C164.661 29.1085 163.796 29.9612 162.852 29.9612C162.223 29.9612 161.672 29.4961 161.24 28.9535L157.071 24.186V28.1395C157.071 29.1473 156.245 29.9612 155.262 29.9612C154.279 29.9612 153.453 29.1473 153.453 28.1395V13.6047C153.453 12.5969 154.24 11.7829 155.262 11.7829C156.285 11.7829 157.071 12.5969 157.071 13.6047V22.6744L161.24 18.1395C161.672 17.6744 162.184 17.1705 162.813 17.1705C163.717 17.1705 164.543 17.9845 164.543 18.9147C164.543 19.1861 164.465 19.4961 164.307 19.7287L161.004 23.2946L164.386 27.3256ZM171.465 20.3876C170.482 20.3876 168.869 20.8915 168.869 22.4031H174.1C174.06 20.8915 172.409 20.3876 171.465 20.3876ZM176.184 24.6899H168.869C168.869 26.8217 170.954 27.1705 171.858 27.1705C172.527 27.1705 173.47 27.0543 174.218 26.7054C174.454 26.5504 174.808 26.4341 175.161 26.4341C175.948 26.4341 176.617 27.093 176.617 27.907C176.617 28.4496 176.263 28.9147 175.83 29.1861C174.729 30 173.274 30.1938 171.897 30.1938C168.24 30.1938 165.212 28.2558 165.212 23.7209C165.212 20.155 167.06 17.0543 171.386 17.0543C174.886 17.0543 177.521 19.3023 177.6 23.2946C177.6 24.031 176.971 24.6899 176.184 24.6899ZM186.252 30.155H185.268C182.516 30.155 180.903 28.9535 180.903 24.7287V20.3488H179.959C179.094 20.3488 178.347 19.5736 178.347 18.7209C178.347 17.7907 179.133 17.0543 179.959 17.0543H180.903V13.6822C180.903 12.6744 181.69 11.8605 182.712 11.8605C183.695 11.8605 184.521 12.6744 184.521 13.6822V17.0543H186.016C186.881 17.0543 187.628 17.7907 187.628 18.7209C187.628 19.5736 186.842 20.3488 186.016 20.3488H184.521V24.031C184.521 26.4729 184.639 26.9767 185.74 26.9767H186.252C187.117 26.9767 187.864 27.6744 187.864 28.5659C187.864 29.4186 187.117 30.155 186.252 30.155ZM203.752 13.1783C204.224 13.4496 204.657 14.1085 204.657 14.6899C204.657 15.6202 203.87 16.3954 202.965 16.3954C202.73 16.3954 202.533 16.3178 202.336 16.2791C201.274 15.5039 199.937 15 198.522 15C195.179 15 192.898 17.6744 192.898 21.0078C192.898 24.3411 195.218 26.9767 198.522 26.9767C200.173 26.9767 201.668 26.3178 202.769 25.2713C203.044 25.0775 203.398 24.9612 203.752 24.9612C204.657 24.9612 205.364 25.6589 205.364 26.5504C205.364 27.1318 205.011 27.6357 204.578 27.907C202.966 29.2636 200.803 30.155 198.561 30.155C193.448 30.155 189.28 26.0077 189.28 20.8915C189.28 15.7752 193.448 11.6279 198.561 11.6279C200.449 11.5891 202.297 12.1705 203.752 13.1783ZM212.915 26.9767C214.528 26.9767 215.904 25.5426 215.904 23.6046C215.904 21.6667 214.488 20.3876 212.915 20.3876C211.303 20.3876 210.044 21.7054 210.044 23.6046C210.044 25.4651 211.342 26.9767 212.915 26.9767ZM216.769 28.6047L216.691 28.1783C215.983 29.5349 213.741 30.155 212.325 30.155C208.943 30.155 206.426 27.1318 206.426 23.5271C206.426 19.9612 208.982 17.0155 212.522 17.0155C213.112 17.0155 215.157 17.1705 216.73 18.9922L216.809 18.5659C216.809 17.7907 217.398 17.1705 218.185 17.1705C218.972 17.1705 219.601 17.8295 219.601 18.5659V28.5659C219.601 29.3411 218.972 29.9612 218.185 29.9612C217.359 30 216.769 29.3411 216.769 28.6047ZM229.472 26.9767C231.084 26.9767 232.343 25.4651 232.343 23.6046C232.343 21.6667 231.045 20.3876 229.472 20.3876C227.859 20.3876 226.483 21.6667 226.483 23.6046C226.483 25.5426 227.859 26.9767 229.472 26.9767ZM226.483 29.1085V33.6434C226.483 34.6512 225.657 35.4651 224.674 35.4651C223.691 35.4651 222.865 34.6512 222.865 33.6434V18.6046C222.865 17.8295 223.494 17.2093 224.281 17.2093C225.067 17.2093 225.657 17.8682 225.657 18.7597C226.994 17.4031 228.646 17.0543 229.904 17.0543C233.404 17.0543 236 19.9612 236 23.5659C236 27.1318 233.522 30.1938 230.101 30.1938C229.039 30.155 227.466 29.845 226.483 29.1085Z" fill="white"/>
</svg>
