<svg width="118" height="24" viewBox="0 0 118 24" fill="none" xmlns="http://www.w3.org/2000/svg">
<path fill-rule="evenodd" clip-rule="evenodd" d="M78.2589 13.7626C77.5817 13.7626 77.0326 14.3197 77.0326 15.0072C77.0326 15.6945 77.5817 16.2516 78.2589 16.2516C78.9361 16.2516 79.4853 15.6945 79.4853 15.0072C79.4853 14.3197 78.9361 13.7626 78.2589 13.7626ZM117.804 12.8158C117.674 12.5212 117.487 12.2657 117.245 12.0492C117.002 11.8328 116.711 11.6523 116.374 11.5082C116.036 11.3638 115.654 11.2438 115.228 11.1475C114.54 10.9792 114.034 10.8198 113.708 10.6695C113.382 10.5192 113.219 10.3118 113.219 10.0472C113.219 9.83069 113.317 9.6476 113.512 9.4969C113.708 9.34683 114.055 9.27147 114.552 9.27147C115.05 9.27147 115.482 9.3409 115.849 9.47912C116.217 9.61733 116.513 9.77079 116.738 9.93907L117.822 8.44195C117.407 8.12932 116.943 7.89501 116.427 7.73858C115.912 7.58237 115.287 7.50406 114.552 7.50406C114.137 7.50406 113.726 7.56438 113.317 7.6844C112.908 7.80484 112.541 7.97607 112.215 8.19853C111.889 8.421 111.626 8.69764 111.424 9.02827C111.223 9.35889 111.122 9.7346 111.122 10.1554C111.122 10.5643 111.208 10.9161 111.38 11.2105C111.551 11.5054 111.771 11.7579 112.037 11.9681C112.304 12.1785 112.591 12.344 112.899 12.464C113.207 12.5845 113.503 12.6806 113.788 12.7525C114.25 12.8609 114.617 12.9631 114.89 13.0592C115.162 13.1556 115.376 13.2516 115.53 13.3477C115.683 13.4443 115.784 13.5433 115.832 13.6456C115.879 13.7476 115.903 13.8591 115.903 13.9791C115.903 14.256 115.766 14.4541 115.494 14.5743C115.221 14.6946 114.86 14.7547 114.41 14.7547C113.9 14.7547 113.447 14.6677 113.05 14.4933C112.653 14.3189 112.324 14.0994 112.064 13.8348L110.802 15.2237C111.181 15.6564 111.685 15.9843 112.313 16.2065C112.941 16.429 113.646 16.5403 114.428 16.5403C114.913 16.5403 115.372 16.4772 115.805 16.3509C116.237 16.2247 116.617 16.0473 116.943 15.8187C117.268 15.5906 117.526 15.3109 117.716 14.9801C117.905 14.6495 118 14.2799 118 13.871C118 13.4623 117.935 13.1105 117.804 12.8158ZM108.705 7.79256L107.123 13.6724L105.346 7.79256H103.587L101.827 13.6724L100.228 7.79256H97.9173L100.743 16.2516H102.698L104.351 11.1475L106.057 16.2516H108.083L110.909 7.79256H108.705ZM95.9092 11.1295C95.9092 10.9129 95.8675 10.6964 95.7849 10.4801C95.7019 10.2638 95.5805 10.0684 95.4205 9.89377C95.2605 9.71978 95.0561 9.57542 94.8073 9.46091C94.5585 9.34682 94.2742 9.28967 93.9543 9.28967C93.6105 9.28967 93.3056 9.34682 93.0391 9.46091C92.7723 9.57542 92.5502 9.71978 92.3725 9.89377C92.1948 10.0684 92.0584 10.2638 91.9637 10.4801C91.8688 10.6964 91.8214 10.9129 91.8214 11.1295H95.9092ZM97.8463 10.5882C97.9886 11.1655 98.0597 11.7547 98.0597 12.3559V12.6624H91.8394C91.8394 12.9752 91.9074 13.2576 92.0436 13.5101C92.1798 13.7628 92.3575 13.9791 92.5769 14.1595C92.7961 14.3398 93.0449 14.478 93.3233 14.5743C93.6016 14.6707 93.8771 14.7187 94.1497 14.7187C94.5524 14.7187 94.9049 14.6798 95.2073 14.6014C95.5093 14.5233 95.7669 14.4332 95.9803 14.3307C96.1934 14.2287 96.3682 14.1205 96.5046 14.006C96.6406 13.8921 96.7445 13.7988 96.8156 13.7266L97.9531 15.0252C97.9175 15.0612 97.8196 15.1605 97.6597 15.3228C97.4999 15.4851 97.2688 15.6564 96.9666 15.8369C96.6646 16.0173 96.2794 16.1796 95.8116 16.3238C95.3433 16.4681 94.7833 16.5403 94.132 16.5403C93.4683 16.5403 92.8639 16.426 92.3193 16.1976C91.7741 15.9692 91.3088 15.6536 90.924 15.2506C90.539 14.848 90.2426 14.3642 90.0355 13.7988C89.828 13.2337 89.7245 12.6084 89.7245 11.9228C89.7245 11.2978 89.828 10.7176 90.0355 10.1825C90.2426 9.6476 90.5331 9.18151 90.9062 8.78464C91.2796 8.38776 91.7238 8.07535 92.2392 7.84675C92.7546 7.61857 93.3261 7.50406 93.9543 7.50406C94.7124 7.50406 95.3552 7.64545 95.8825 7.92781C96.4095 8.2106 96.8333 8.58038 97.1533 9.03716C97.4732 9.49414 97.7043 10.011 97.8463 10.5882ZM85.6013 7.61243C85.2695 7.61243 84.9733 7.64841 84.7126 7.72059C84.4519 7.79256 84.2179 7.8859 84.0108 7.99999C83.8033 8.1145 83.6256 8.23769 83.4775 8.36977C83.3294 8.50228 83.2022 8.62843 83.0956 8.74844L83.0422 7.79256H81.0339V16.2516H83.1311V11.6705C83.1311 11.3581 83.1813 11.0662 83.2821 10.7957C83.3826 10.5252 83.5219 10.2879 83.6998 10.0832C83.8773 9.87895 84.0907 9.71978 84.3395 9.60527C84.5883 9.49118 84.8549 9.43403 85.1394 9.43403C85.6013 9.43403 85.9774 9.58135 86.2677 9.87578C86.558 10.1706 86.7032 10.5882 86.7032 11.1295V16.2516H88.8003V11.1115C88.8003 10.0413 88.5277 9.19061 87.983 8.55921C87.4378 7.92781 86.6438 7.61243 85.6013 7.61243ZM74.0319 12.0132C74.0319 11.7128 73.9843 11.403 73.8896 11.0842C73.7948 10.7658 73.6496 10.4773 73.4542 10.2185C73.2587 9.96002 73.0126 9.74963 72.7167 9.58728C72.4203 9.42493 72.0707 9.34365 71.6682 9.34365C71.265 9.34365 70.9155 9.42493 70.6195 9.58728C70.3232 9.74963 70.0775 9.96002 69.882 10.2185C69.6864 10.4773 69.5412 10.7658 69.4465 11.0842C69.3516 11.403 69.3043 11.7128 69.3043 12.0132C69.3043 12.326 69.3516 12.6384 69.4465 12.9511C69.5412 13.2637 69.6864 13.5524 69.882 13.8168C70.0775 14.0814 70.3232 14.2947 70.6195 14.4571C70.9155 14.6194 71.265 14.7005 71.6682 14.7005C72.0707 14.7005 72.4203 14.6194 72.7167 14.4571C73.0126 14.2947 73.2587 14.0814 73.4542 13.8168C73.6496 13.5524 73.7948 13.2637 73.8896 12.9511C73.9843 12.6384 74.0319 12.326 74.0319 12.0132ZM75.8179 10.2727C76.0371 10.8198 76.1466 11.4 76.1466 12.0132C76.1466 12.6264 76.0371 13.2068 75.8179 13.7537C75.5986 14.3011 75.2935 14.7818 74.9027 15.1964C74.5116 15.6115 74.0407 15.9392 73.4898 16.1796C72.9388 16.4199 72.3314 16.5403 71.6682 16.5403C71.0043 16.5403 70.3974 16.4199 69.8464 16.1796C69.2955 15.9392 68.8246 15.6115 68.4335 15.1964C68.0425 14.7818 67.7373 14.3011 67.5183 13.7537C67.2989 13.2068 67.1894 12.6264 67.1894 12.0132C67.1894 11.4 67.2989 10.8198 67.5183 10.2727C67.7373 9.72571 68.0425 9.24755 68.4335 8.83883C68.8246 8.4301 69.2955 8.10561 69.8464 7.86474C70.3974 7.6245 71.0043 7.50406 71.6682 7.50406C72.3314 7.50406 72.9388 7.6245 73.4898 7.86474C74.0407 8.10561 74.5116 8.4301 74.9027 8.83883C75.2935 9.24755 75.5986 9.72571 75.8179 10.2727ZM65.6558 14.5743C65.4604 14.6707 65.1966 14.7187 64.8649 14.7187C64.5095 14.7187 64.2518 14.5896 64.0918 14.3307C63.9318 14.0725 63.8521 13.7027 63.8521 13.2216V9.5242H66.0913V7.79256H63.8521V5.05106H61.7548V7.79256H60.333V9.5242H61.7548V13.3659C61.7548 13.8348 61.8021 14.2649 61.897 14.6554C61.9917 15.0464 62.1488 15.38 62.368 15.6564C62.5872 15.9332 62.8744 16.1466 63.23 16.2969C63.5854 16.4472 64.0177 16.5223 64.5273 16.5223C65.0251 16.5223 65.475 16.4472 65.878 16.2969C66.2807 16.1466 66.6895 15.8971 67.1043 15.5482L66.2156 14.2314C66.0379 14.3642 65.8515 14.478 65.6558 14.5743ZM57.8272 12.0674C57.8272 11.7065 57.7887 11.3701 57.7117 11.0573C57.6345 10.7447 57.51 10.471 57.3384 10.2365C57.1665 10.0021 56.9444 9.81588 56.672 9.67745C56.3992 9.53923 56.0617 9.47002 55.659 9.47002C55.339 9.47002 55.0487 9.53923 54.788 9.67745C54.5273 9.81588 54.3052 9.99304 54.1216 10.2096C53.9379 10.4259 53.7956 10.6636 53.6951 10.9218C53.5944 11.1807 53.5441 11.43 53.5441 11.6705V14.1775C53.9587 14.5265 54.5865 14.7005 55.4279 14.7005C55.8071 14.7005 56.1445 14.6256 56.4409 14.4751C56.7369 14.3248 56.9888 14.1265 57.1963 13.8799C57.4034 13.6337 57.5607 13.3541 57.6673 13.0412C57.7739 12.7286 57.8272 12.4039 57.8272 12.0674ZM59.711 10.4259C59.865 10.9551 59.9421 11.5022 59.9421 12.0674C59.9421 12.7286 59.847 13.2938 59.6578 13.7628C59.468 14.2314 59.2311 14.6406 58.9468 14.9892C58.4728 15.5664 57.9543 15.9692 57.3918 16.1976C56.8288 16.426 56.2513 16.5403 55.659 16.5403C55.3862 16.5403 55.1524 16.528 54.9569 16.5041C54.7615 16.48 54.5838 16.4472 54.4238 16.4051C54.2639 16.3627 54.1156 16.3149 53.9796 16.2607C53.8432 16.2065 53.6978 16.1496 53.5441 16.0895V19.859H51.4647V7.79256H53.4907L53.5441 8.74844C53.6507 8.62843 53.784 8.50228 53.9439 8.36977C54.1039 8.23769 54.2933 8.11726 54.5127 8.00909C54.7317 7.90093 54.9805 7.81055 55.2589 7.73858C55.5374 7.66641 55.8484 7.63042 56.1921 7.63042C56.832 7.63042 57.3857 7.75658 57.8539 8.00909C58.3218 8.26161 58.7097 8.5952 59.018 9.01006C59.3258 9.42493 59.5569 9.89695 59.711 10.4259ZM46.4887 13.5823L44.1073 7.79256H41.6902L45.44 16.1796L45.1735 16.865C44.9718 17.37 44.7795 17.7424 44.5959 17.9832C44.412 18.2235 44.1782 18.3439 43.8939 18.3439C43.6805 18.3439 43.5028 18.2988 43.3606 18.2087C43.2186 18.1185 43.088 18.0254 42.9697 17.929L42.0278 19.426C42.2646 19.6304 42.5401 19.7896 42.8542 19.9041C43.1679 20.0182 43.5621 20.0756 44.0361 20.0756C44.5809 20.0756 45.0312 19.9551 45.3868 19.7147C45.7422 19.474 46.0413 19.1645 46.2843 18.7859C46.5269 18.407 46.7315 17.9951 46.8975 17.5504C47.0631 17.1052 47.2289 16.6726 47.3951 16.2516L50.8784 7.79256H48.5858L46.4887 13.5823ZM40.3397 7.63042C39.9958 7.63042 39.6908 7.67254 39.4243 7.75658C39.1577 7.84082 38.9235 7.94327 38.7223 8.06328C38.5208 8.18351 38.346 8.31559 38.1981 8.46015C38.0498 8.6043 37.9285 8.7368 37.8338 8.85682L37.7804 7.79256H35.7721V16.2516H37.8692V11.6885C37.8692 11.3761 37.9253 11.0933 38.0382 10.8408C38.1506 10.5882 38.3016 10.3719 38.4914 10.1914C38.6805 10.011 38.9058 9.87303 39.1665 9.77672C39.4272 9.68062 39.6998 9.63236 39.9841 9.63236C40.1854 9.63236 40.3601 9.64443 40.5084 9.66835C40.6563 9.69269 40.8017 9.7346 40.9439 9.79471L41.3704 7.79256C41.2044 7.73266 41.0415 7.69054 40.8816 7.66641C40.7216 7.64249 40.541 7.63042 40.3397 7.63042ZM29.5165 11.0211C29.4214 11.3458 29.3743 11.6766 29.3743 12.0132C29.3743 12.3379 29.4214 12.6567 29.5165 12.9691C29.6112 13.2819 29.7564 13.5643 29.9518 13.8168C30.1474 14.0693 30.3931 14.2738 30.6895 14.43C30.9855 14.5864 31.335 14.6645 31.738 14.6645C32.1526 14.6645 32.5316 14.5832 32.8755 14.4211C33.219 14.2588 33.5091 14.0395 33.7463 13.7628L34.9904 15.1334C34.5993 15.5544 34.1373 15.8909 33.604 16.1434C33.0709 16.396 32.449 16.5223 31.738 16.5223C31.0272 16.5223 30.3931 16.4139 29.8362 16.1976C29.2794 15.9811 28.8113 15.6746 28.4324 15.2777C28.053 14.8811 27.7629 14.4061 27.5614 13.8528C27.3599 13.2999 27.2594 12.6867 27.2594 12.0132C27.2594 11.4 27.3687 10.8198 27.5881 10.2727C27.8073 9.72571 28.1124 9.24755 28.5035 8.83883C28.8944 8.4301 29.3653 8.10561 29.9163 7.86474C30.4674 7.6245 31.0743 7.50406 31.738 7.50406C32.4133 7.50406 33.0292 7.62746 33.5863 7.87384C34.1432 8.12043 34.617 8.45402 35.0081 8.87481L33.6751 10.2456C33.438 9.96912 33.1598 9.75259 32.8398 9.59617C32.5199 9.44017 32.1526 9.36185 31.738 9.36185C31.335 9.36185 30.9855 9.43721 30.6895 9.58728C30.3931 9.73777 30.1474 9.93314 29.9518 10.1734C29.7564 10.4143 29.6112 10.6964 29.5165 11.0211Z" fill="white"/>
<path fill-rule="evenodd" clip-rule="evenodd" d="M23.6486 12C23.6486 5.37252 18.3548 0 11.8243 0C5.29386 0 0 5.37252 0 12C0 18.6275 5.29386 24 11.8243 24C18.3548 24 23.6486 18.6275 23.6486 12Z" fill="#0080C9"/>
<path fill-rule="evenodd" clip-rule="evenodd" d="M5.27899 14.7311C4.86645 14.7311 4.53211 15.0704 4.53211 15.4891C4.53211 15.9075 4.86645 16.2468 5.27899 16.2468C5.69154 16.2468 6.02587 15.9075 6.02587 15.4891C6.02587 15.0704 5.69154 14.7311 5.27899 14.7311ZM18.8561 19.138C20.7345 17.2317 21.769 14.6972 21.769 12.0014C21.769 9.3228 20.6903 6.70491 18.8096 4.81875C18.663 4.67207 18.4265 4.67313 18.2815 4.82214C18.1366 4.97094 18.1378 5.21097 18.2846 5.35787C20.0243 7.10263 21.0221 9.5241 21.0221 12.0014C21.0221 14.4947 20.0654 16.8389 18.328 18.602C16.5909 20.3652 14.281 21.3361 11.8243 21.3359C9.36754 21.3361 7.05766 20.3652 5.3205 18.602C3.58313 16.8391 2.62643 14.4949 2.62664 12.0016C2.62664 9.50822 3.58334 7.16423 5.3205 5.40105C7.58617 3.10193 10.7228 2.19091 13.9258 2.90063C14.1275 2.94572 14.3262 2.81597 14.3702 2.6115C14.4142 2.40681 14.2866 2.20488 14.0851 2.16022C10.6285 1.39357 7.2414 2.37972 4.7924 4.86511C2.91405 6.77137 1.87976 9.30587 1.87976 12.0016C1.87955 14.6972 2.91405 17.2317 4.7924 19.138C6.67076 21.0442 9.16815 22.0941 11.8243 22.0939C14.4804 22.0939 16.978 21.044 18.8561 19.138ZM16.4363 2.73066C16.0238 2.73066 15.6894 3.06996 15.6894 3.48864C15.6894 3.90711 16.0238 4.24641 16.4363 4.24641C16.8486 4.24641 17.183 3.90711 17.183 3.48864C17.183 3.06996 16.8486 2.73066 16.4363 2.73066ZM17.3135 17.5729C20.3405 14.501 20.3405 9.50251 17.3135 6.43038C14.2866 3.35868 9.36108 3.35868 6.33414 6.43038C4.4685 8.32395 3.68178 11.0199 4.22948 13.6425C4.27224 13.8474 4.471 13.9778 4.67227 13.9348C4.87395 13.8914 5.00285 13.6903 4.96009 13.4854C4.46495 11.1148 5.17596 8.67764 6.86223 6.96632C9.59801 4.18989 14.0497 4.18989 16.7854 6.96632C19.5214 9.74296 19.5214 14.2606 16.7854 17.037C15.4588 18.3836 13.6995 19.1227 11.8253 19.1227C11.8044 19.1227 11.7834 19.1227 11.7625 19.1225C9.86539 19.1058 8.09403 18.333 6.77442 16.9464C6.63114 16.7957 6.39483 16.7917 6.24654 16.9371C6.09804 17.0825 6.09407 17.3225 6.23736 17.473C7.69692 19.007 9.65682 19.8619 11.7558 19.8803C11.7792 19.8805 11.8021 19.8807 11.8255 19.8807C13.8989 19.8807 15.8456 19.0626 17.3135 17.5729ZM11.824 17.3776C8.90327 17.3776 6.52706 14.966 6.52706 12.0019C6.52706 9.03747 8.90327 6.62596 11.824 6.62596C13.5779 6.62596 15.2151 7.5048 16.204 8.97715C16.4749 9.3808 16.3725 9.93071 15.9747 10.2059C15.5772 10.4808 15.0352 10.3767 14.7642 9.97325C14.1001 8.98456 13.0012 8.39422 11.824 8.39422C9.86414 8.39422 8.26943 10.0126 8.26943 12.0019C8.26943 13.9909 9.86414 15.6093 11.824 15.6093C13.0012 15.6093 14.1001 15.019 14.7642 14.0303C15.0352 13.6266 15.5772 13.5225 15.9747 13.7976C16.3725 14.0726 16.4749 14.6227 16.204 15.0262C15.2151 16.4985 13.5779 17.3776 11.824 17.3776Z" fill="white"/>
</svg>
