<svg width="216" height="40" viewBox="0 0 216 40" fill="none" xmlns="http://www.w3.org/2000/svg">
<path d="M42.7334 7.36196H49.5929C51.9334 7.36196 53.6708 7.91084 54.8051 9.00859C55.9394 10.0883 56.5065 11.771 56.5065 14.0564V19.5632C56.5065 21.8487 55.9394 23.5403 54.8051 24.638C53.6708 25.7178 51.9334 26.2577 49.5929 26.2577H42.7334V22.8294H44.5158V10.7632H42.7334V7.36196ZM49.5929 22.8564C50.8352 22.8564 51.6994 22.5685 52.1855 21.9926C52.6896 21.3988 52.9417 20.481 52.9417 19.2393V14.0564C52.9417 12.9767 52.6896 12.1579 52.1855 11.6C51.6994 11.0421 50.8352 10.7632 49.5929 10.7632H48.0806V22.8564H49.5929Z" fill="white"/>
<path d="M59.1613 7.36196H71.098V10.7632H62.7261V15.0822H70.7739V18.4834H62.7261V22.8564H71.4221V26.2577H59.1613V7.36196Z" fill="white"/>
<path d="M77.1556 7.36196L80.3423 15.0822H80.9905L84.1772 7.36196H88.0391L84.1502 16.5399V17.0258L88.0391 26.2577H84.1772L80.9905 18.4834H80.3423L77.1556 26.2577H73.2937L77.1826 17.0258V16.5399L73.2937 7.36196H77.1556Z" fill="white"/>
<path d="M105.703 12.8147C105.703 12.2029 105.577 11.663 105.325 11.1951C105.091 10.7272 104.767 10.3403 104.353 10.0343C103.939 9.72842 103.462 9.49447 102.922 9.33251C102.382 9.17054 101.815 9.08956 101.22 9.08956C100.698 9.08956 100.203 9.16154 99.7351 9.30551C99.267 9.43148 98.8439 9.62044 98.4659 9.87238C98.1058 10.1243 97.8177 10.4393 97.6017 10.8172C97.3856 11.1771 97.2776 11.6 97.2776 12.0859V12.2478C97.2776 12.7697 97.3856 13.2196 97.6017 13.5975C97.8177 13.9575 98.1328 14.2724 98.5469 14.5423C98.979 14.7943 99.5101 15.0102 100.14 15.1902C100.77 15.3521 101.509 15.4961 102.355 15.6221C104.335 15.928 105.794 16.5129 106.73 17.3767C107.666 18.2225 108.134 19.3652 108.134 20.8049V21.1288C108.134 21.9386 107.99 22.6855 107.702 23.3693C107.432 24.0352 107.018 24.611 106.46 25.0969C105.92 25.5828 105.244 25.9607 104.434 26.2307C103.624 26.5006 102.688 26.6356 101.626 26.6356C100.419 26.6356 99.3481 26.4646 98.4118 26.1227C97.4936 25.7628 96.7195 25.2769 96.0893 24.665C95.4772 24.0352 95.0091 23.3063 94.685 22.4785C94.3609 21.6327 94.1989 20.7149 94.1989 19.7251V18.9153H96.4674V19.5632C96.4674 21.2188 96.9175 22.4605 97.8177 23.2883C98.7359 24.1161 100.005 24.5301 101.626 24.5301C103.03 24.5301 104.083 24.2241 104.785 23.6123C105.505 22.9824 105.866 22.1546 105.866 21.1288V20.9669C105.866 19.9771 105.496 19.2213 104.758 18.6994C104.038 18.1775 102.859 17.7996 101.22 17.5656C100.266 17.4397 99.4021 17.2507 98.6279 16.9988C97.8717 16.7288 97.2236 16.3869 96.6834 15.973C96.1433 15.5411 95.7292 15.0282 95.4412 14.4343C95.1531 13.8405 95.0091 13.1386 95.0091 12.3288V12.0049C95.0091 11.2671 95.1621 10.5922 95.4682 9.98036C95.7742 9.3685 96.1973 8.83762 96.7375 8.38772C97.2956 7.93782 97.9527 7.5959 98.7089 7.36195C99.4831 7.11001 100.329 6.98404 101.247 6.98404C102.31 6.98404 103.255 7.13701 104.083 7.44294C104.929 7.74887 105.64 8.16277 106.217 8.68465C106.793 9.18854 107.225 9.7914 107.513 10.4932C107.819 11.1771 107.972 11.8969 107.972 12.6528V13.7865H105.703V12.8147Z" fill="white"/>
<path d="M116.811 24.5301C117.585 24.5301 118.243 24.4041 118.783 24.1521C119.341 23.8822 119.791 23.5313 120.133 23.0994C120.493 22.6495 120.754 22.1456 120.916 21.5877C121.096 21.0119 121.186 20.409 121.186 19.7791V19.4552H123.455V19.7791C123.455 20.7329 123.311 21.6327 123.023 22.4785C122.735 23.3063 122.311 24.0352 121.753 24.665C121.195 25.2769 120.502 25.7628 119.674 26.1227C118.846 26.4646 117.891 26.6356 116.811 26.6356C114.723 26.6356 113.093 25.9787 111.923 24.665C110.753 23.3513 110.168 21.4348 110.168 18.9153V14.7043C110.168 12.2568 110.753 10.3583 111.923 9.00858C113.093 7.65889 114.723 6.98404 116.811 6.98404C117.891 6.98404 118.846 7.164 119.674 7.52392C120.502 7.86584 121.195 8.35173 121.753 8.98159C122.311 9.59345 122.735 10.3223 123.023 11.1681C123.311 11.9959 123.455 12.8867 123.455 13.8405V14.1644H121.186V13.8405C121.168 13.2286 121.069 12.6348 120.889 12.0589C120.727 11.483 120.466 10.9791 120.106 10.5472C119.764 10.0973 119.323 9.74641 118.783 9.49447C118.243 9.22453 117.585 9.08956 116.811 9.08956C115.353 9.08956 114.255 9.62044 113.516 10.6822C112.796 11.744 112.436 13.1386 112.436 14.8662V18.7534C112.436 20.6069 112.796 22.0376 113.516 23.0454C114.255 24.0352 115.353 24.5301 116.811 24.5301Z" fill="white"/>
<path d="M138.073 26.2577H135.805V19.9411C135.805 19.4732 135.697 19.1133 135.481 18.8613C135.265 18.6094 134.887 18.4834 134.346 18.4834H128.459V26.2577H126.191V7.36195H132.942C133.914 7.36195 134.761 7.50592 135.481 7.79386C136.201 8.0638 136.795 8.43271 137.263 8.90061C137.749 9.3685 138.109 9.91737 138.343 10.5472C138.595 11.1591 138.721 11.8069 138.721 12.4908V13.3006C138.721 14.0024 138.523 14.7043 138.127 15.4061C137.749 16.108 137.155 16.6478 136.345 17.0258V17.3497C136.885 17.4397 137.308 17.6556 137.614 17.9975C137.92 18.3395 138.073 18.8253 138.073 19.4552V26.2577ZM128.459 16.3779H132.672C133.95 16.3779 134.896 16.108 135.508 15.5681C136.138 15.0102 136.453 14.2004 136.453 13.1386V12.6528C136.453 11.699 136.138 10.9341 135.508 10.3583C134.896 9.76441 133.95 9.46748 132.672 9.46748H128.459V16.3779Z" fill="white"/>
<path d="M141.889 7.36195H153.34V9.46748H144.158V15.7301H153.178V17.8356H144.158V24.1521H153.502V26.2577H141.889V7.36195Z" fill="white"/>
<path d="M157.345 7.36195H168.796V9.46748H159.614V15.7301H168.634V17.8356H159.614V24.1521H168.958V26.2577H157.345V7.36195Z" fill="white"/>
<path d="M182.226 25.2859H182.55V7.36195H184.818V26.2577H180.281L174.826 8.33373H174.502V26.2577H172.234V7.36195H176.771L182.226 25.2859Z" fill="white"/>
<path d="M188.257 7.36195H199.707V9.46748H190.525V15.7301H199.545V17.8356H190.525V24.1521H199.869V26.2577H188.257V7.36195Z" fill="white"/>
<path d="M215.352 26.2577H213.083V19.9411C213.083 19.4732 212.975 19.1133 212.759 18.8613C212.543 18.6094 212.165 18.4834 211.625 18.4834H205.738V26.2577H203.469V7.36195H210.221C211.193 7.36195 212.039 7.50592 212.759 7.79386C213.479 8.0638 214.074 8.43271 214.542 8.90061C215.028 9.3685 215.388 9.91737 215.622 10.5472C215.874 11.1591 216 11.8069 216 12.4908V13.3006C216 14.0024 215.802 14.7043 215.406 15.4061C215.028 16.108 214.434 16.6478 213.623 17.0258V17.3497C214.164 17.4397 214.587 17.6556 214.893 17.9975C215.199 18.3395 215.352 18.8253 215.352 19.4552V26.2577ZM205.738 16.3779H209.951C211.229 16.3779 212.174 16.108 212.786 15.5681C213.416 15.0102 213.731 14.2004 213.731 13.1386V12.6528C213.731 11.699 213.416 10.9341 212.786 10.3583C212.174 9.76441 211.229 9.46748 209.951 9.46748H205.738V16.3779Z" fill="white"/>
<path fill-rule="evenodd" clip-rule="evenodd" d="M20.2628 14.2668C21.4874 13.6559 23.0461 12.7563 24.6062 11.5242C24.9355 12.2079 24.9714 12.804 24.8017 13.2859C24.6813 13.6254 24.4553 13.9203 24.1573 14.155C23.8351 14.4084 23.4324 14.5938 22.9874 14.6932C22.1428 14.8832 21.1574 14.7722 20.262 14.266M20.4747 20.5257L22.0959 21.4628C18.7855 23.3191 17.8854 26.765 16.8163 30.1216C15.7472 26.765 14.8471 23.3183 11.5367 21.4628L13.1579 20.5257C13.4793 20.4044 13.6866 20.0892 13.6701 19.745C13.5216 16.6011 14.3701 15.211 15.515 14.338C15.9256 14.0251 16.3737 13.8687 16.8155 13.8687C17.2574 13.8687 17.7063 14.0259 18.1168 14.338C19.2617 15.211 20.1103 16.6011 19.9617 19.745C19.9453 20.0884 20.1525 20.4036 20.4739 20.5257H20.4747ZM16.8171 0C18.6916 0.0500645 20.5701 0.414597 22.2007 1.12254C23.3299 1.6138 24.3833 2.26151 25.3374 3.03751C25.7683 3.38718 26.1234 3.7259 26.5136 4.11468C27.5678 4.15145 29.1077 2.97962 29.8232 1.88368C28.5923 5.91935 22.9765 10.6857 19.0881 12.5091C19.0866 12.5091 19.0858 12.5075 19.0842 12.5067C18.3866 11.974 17.6015 11.7073 16.8171 11.7073C16.0327 11.7073 15.2475 11.974 14.5499 12.5067C14.5484 12.5067 14.5476 12.5083 14.546 12.5091C10.6577 10.6857 5.04187 5.91935 3.81093 1.88368C4.52572 2.97962 6.06634 4.15066 7.12054 4.11468C7.51156 3.7259 7.8666 3.38718 8.29673 3.03751C9.25082 2.26229 10.3042 1.6138 11.4335 1.12254C13.0641 0.414597 14.9433 0.0500645 16.8171 0ZM13.3714 14.2668C12.1467 13.6559 10.5881 12.7563 9.02794 11.5242C8.6987 12.2079 8.66272 12.804 8.83243 13.2859C8.95286 13.6254 9.17887 13.9203 9.47683 14.155C9.79903 14.4084 10.2018 14.5938 10.6468 14.6932C11.4914 14.8832 12.4767 14.7722 13.3722 14.266" fill="white"/>
<path fill-rule="evenodd" clip-rule="evenodd" d="M26.3157 10.0153C27.1744 9.14851 27.9314 8.18868 28.5406 7.33211L28.8496 7.91411C29.8443 9.90574 30.362 11.8888 30.362 14.1213L30.3597 17.6634L30.3784 19.4994C30.4504 24.0075 31.4256 28.5681 33.6349 32.7422L29.013 29.0147L25.7425 34.3232L22.307 31.0885L16.817 40L11.3271 31.0885L7.89159 34.3232L4.62109 29.0147L0 32.7422C2.20927 28.5681 3.1837 24.0075 3.25643 19.4994L3.27519 17.6634L3.27285 14.1213C3.27285 11.8888 3.78978 9.90574 4.78532 7.91411L5.09423 7.33211C5.70265 8.18868 6.45967 9.14851 7.31914 10.0153L7.0509 10.573C6.53006 11.6556 6.35722 12.8658 6.76311 14.0173C7.02509 14.7589 7.50214 15.3948 8.11839 15.8798C8.71665 16.3515 9.42361 16.6691 10.165 16.8358C10.6475 16.9445 11.1394 16.9891 11.6282 16.9742C11.514 17.6204 11.4647 18.2908 11.4608 18.9737L7.10095 21.4925L10.4653 23.3786C10.7343 23.5295 10.99 23.7024 11.2309 23.8949C14.0048 26.3856 15.6721 33.7552 16.8178 37.3544C17.9643 33.7552 19.6316 26.3856 22.4047 23.8949C22.6448 23.7016 22.9013 23.5288 23.1704 23.3786L26.5347 21.4925L22.1748 18.9737C22.1717 18.2908 22.1216 17.6204 22.0075 16.9742C22.4962 16.9891 22.9874 16.9445 23.4707 16.8358C24.2113 16.6691 24.919 16.3508 25.5173 15.8798C26.1327 15.3941 26.6106 14.7589 26.8725 14.0173C27.2784 12.8658 27.1056 11.6556 26.5848 10.573L26.3165 10.0153H26.3157Z" fill="white"/>
</svg>
