<svg width="128" height="40" viewBox="0 0 128 40" fill="none" xmlns="http://www.w3.org/2000/svg">
<path d="M94.5764 15.822C92.0831 16.1328 90.2481 17.5382 89.5717 19.6366C89.1094 21.0679 89.1615 22.4214 89.747 23.8009C90.4367 25.4329 91.9211 26.5921 93.8925 27.0326C94.459 27.1621 95.9359 27.175 96.5222 27.0585C98.8063 26.6115 100.407 25.1997 101.065 23.056C101.221 22.5444 101.24 22.389 101.24 21.4823C101.24 20.5756 101.221 20.4202 101.065 19.9086C100.414 17.7973 98.8716 16.4049 96.6653 15.9385C96.2163 15.8479 94.9667 15.7767 94.5764 15.822ZM95.9756 18.6004C96.8018 18.8141 97.5766 19.3516 97.9405 19.9733C98.4937 20.9124 98.4747 22.1494 97.9016 23.0496C96.8671 24.6687 94.5045 24.9342 93.0854 23.5872C91.9012 22.4668 91.8623 20.6922 92.9878 19.4811C93.7304 18.678 94.9213 18.3348 95.9756 18.6004Z" fill="white"/>
<path d="M106.707 15.822C104.215 16.1328 102.38 17.5382 101.703 19.6366C101.241 21.0679 101.293 22.4214 101.879 23.8009C102.569 25.4329 104.053 26.5921 106.024 27.0326C106.591 27.1621 108.068 27.175 108.654 27.0585C110.938 26.6115 112.539 25.1997 113.197 23.056C113.353 22.5444 113.372 22.389 113.372 21.4823C113.372 20.5756 113.353 20.4202 113.197 19.9086C112.546 17.7973 111.003 16.4049 108.797 15.9385C108.348 15.8479 107.099 15.7767 106.707 15.822ZM108.107 18.6004C108.934 18.8141 109.708 19.3516 110.072 19.9733C110.626 20.9124 110.607 22.1494 110.033 23.0496C108.999 24.6687 106.636 24.9342 105.217 23.5872C104.033 22.4668 103.994 20.6922 105.12 19.4811C105.861 18.678 107.053 18.3348 108.107 18.6004Z" fill="white"/>
<path d="M122.999 15.8586C121.563 16.0657 120.487 16.9911 120.139 18.3177C119.803 19.5667 120.042 20.8481 120.712 21.4693C121.111 21.8382 121.582 22.0583 122.883 22.4789C124.146 22.8866 124.429 23.0613 124.558 23.4884C124.706 23.9802 124.339 24.5627 123.792 24.718C123.489 24.8021 122.928 24.8021 122.555 24.7115C122.142 24.6145 121.408 24.2521 121.092 23.9802C120.95 23.8508 120.795 23.7473 120.764 23.7473C120.732 23.7473 120.577 23.9867 120.422 24.278C120.209 24.6921 120.139 24.7827 120.119 24.6663L120.1 24.5239H116.756V16.0463H113.986V26.9183H120.106V26.6271C120.106 26.4653 120.119 26.3359 120.132 26.3359C120.145 26.3359 120.396 26.4524 120.692 26.5882C121.601 27.0153 122.175 27.1384 123.296 27.1384C124.391 27.1384 124.906 27.0412 125.583 26.7113C126.117 26.4524 126.845 25.734 127.09 25.2292C127.574 24.2197 127.638 22.8672 127.238 22.0065C127.168 21.8446 126.929 21.5341 126.71 21.314C126.239 20.8351 125.731 20.5827 124.423 20.1621C123.908 20.0003 123.392 19.8062 123.276 19.735C122.858 19.4761 122.773 18.9067 123.102 18.5507C123.675 17.9359 124.687 17.9941 125.75 18.6995L125.956 18.8354L126.517 17.7547C126.82 17.1658 127.065 16.6739 127.051 16.661C126.987 16.5963 126.201 16.2857 125.756 16.1433C124.803 15.8392 123.811 15.7356 122.999 15.8586Z" fill="white"/>
<path d="M44.8809 27.1384H47.4076C48.7939 27.1384 50.2459 27.0969 50.6233 27.0555C53.7406 26.666 56.0458 24.7602 56.7841 21.9512C57.0302 21.0231 57.0876 19.3825 56.9072 18.413C56.5544 16.5237 55.5782 14.999 54.0852 13.9716C53.4125 13.5075 52.8136 13.2507 51.8538 12.9855C51.0991 12.7783 50.9843 12.7783 47.9818 12.7369L44.8809 12.7038V27.1384ZM50.3936 15.6537C52.3542 16.0763 53.6586 17.7335 53.6586 19.8051C53.6504 21.1806 53.232 22.3655 52.4527 23.1444C51.6816 23.9316 50.5249 24.3128 48.9252 24.321H48.1623V15.5377H49.0072C49.4666 15.5377 50.0901 15.5957 50.3936 15.6537Z" fill="white"/>
<path d="M58.0877 27.1384L64.1041 27.1301H70.1123L71.6636 24.9317C72.5255 23.7288 73.2396 22.7416 73.2642 22.7416C73.297 22.7416 74.0193 23.7288 74.8729 24.94L76.4325 27.1384H78.386C79.453 27.1384 80.3312 27.1135 80.3312 27.0886C80.3312 27.0637 79.1821 25.4377 77.7868 23.4799L75.2423 19.9211L77.6719 16.4949C79.0098 14.6201 80.1753 13.0024 80.2574 12.9112C80.4133 12.7535 80.4133 12.7784 80.4133 14.2219V15.6902H83.3682V27.1384H86.8976V15.6902L88.6213 15.6736L90.3368 15.6488L88.4982 12.7121L82.4653 12.7038H76.4243L74.8729 14.9021C74.0111 16.105 73.297 17.0922 73.2724 17.1005C73.2478 17.1005 72.5255 16.1133 71.6718 14.9021L70.1123 12.7038H58.0877V27.1384ZM68.7088 16.3041C70.0877 18.237 71.2204 19.863 71.2204 19.9128C71.2204 19.9625 70.0877 21.5968 68.7006 23.5463L66.1725 27.0886L66.1479 25.7032L66.1315 24.3178H61.3708V21.0825H65.2286V18.3449H61.3708V15.5243H66.1315V14.1555C66.1315 13.4006 66.1479 12.7867 66.1643 12.7867C66.1889 12.7867 67.3298 14.3712 68.7088 16.3041Z" fill="white"/>
<path fill-rule="evenodd" clip-rule="evenodd" d="M13.279 2.26182C10.9251 3.50311 8.99928 4.55349 8.99969 4.59621C9.00074 4.70648 14.6491 7.60226 14.8496 7.5952C14.9408 7.59211 15.6024 7.28382 16.3197 6.91021L17.6241 6.23104L20.4731 7.71372L22.806 6.65254C26.3212 5.05351 26.6863 4.87829 26.6291 4.81942C26.5532 4.74131 25.2923 4.05563 21.8716 2.23257C20.2184 1.35146 18.6139 0.487559 18.3058 0.312749C17.9978 0.13794 17.7038 -0.00268317 17.6524 3.88612e-05C17.6011 0.00276089 15.6329 1.02057 13.279 2.26182ZM2.9548 7.67386L0.504421 8.95515V14.5785C0.504421 17.6714 0.536597 20.2018 0.576065 20.2018C0.615396 20.2018 1.82099 19.6728 3.2551 19.0262L5.86258 17.8505V11.9231L7.13676 12.6259C8.11863 13.1669 9.10109 13.7068 10.0841 14.2457L11.7573 15.1627L12.5018 14.8219C12.9687 14.6078 13.4347 14.3917 13.8998 14.1734C14.2591 14.004 15.1413 13.6018 15.86 13.2794C16.5788 12.957 17.2442 12.6327 17.3385 12.5588C17.4638 12.4606 15.9356 11.6057 11.6861 9.39658C8.48282 7.73139 5.75922 6.37425 5.63361 6.38076C5.50801 6.38726 4.30255 6.96908 2.9548 7.67386ZM27.0707 8.03368C25.4018 8.79635 24.0352 9.45084 24.0337 9.48816C24.0322 9.52544 24.9418 10.0729 26.0551 10.7046C27.1683 11.3365 28.0792 11.8872 28.0792 11.9287C28.0792 11.9701 27.0941 12.4532 25.8902 13.0026C24.6862 13.5519 21.6429 14.9432 19.1272 16.0944L10.6979 19.9515C8.57757 20.9218 6.66629 21.7964 6.45068 21.8953C2.11969 23.88 0.929271 24.4307 0.765793 24.5253C0.601404 24.6204 0.56417 25.1734 0.53491 27.9486L0.5 31.2586L4.88244 33.519L7.92088 32.1309C9.59207 31.3675 10.9593 30.7028 10.9593 30.6539C10.9593 30.6051 10.6505 30.4014 10.2732 30.2011C9.89578 30.0007 9.11663 29.5573 8.54161 29.2154C7.96664 28.8735 7.39331 28.5598 7.26743 28.5182C7.1416 28.4767 7.04046 28.4042 7.04252 28.3568C7.04461 28.3096 8.3826 27.6663 10.0156 26.927C13.1875 25.4914 15.6149 24.3849 20.8261 21.9993C23.1564 20.9327 25.487 19.8668 27.8178 18.8016C29.8663 17.8656 32.2481 16.7724 33.1106 16.3723L34.6789 15.6448L34.7488 8.94961L32.5263 7.79483C31.3039 7.15976 30.259 6.6417 30.2043 6.64359C30.1495 6.64535 28.7394 7.27081 27.0707 8.03368ZM34.0834 20.1108C33.7559 20.2728 33.109 20.576 32.6459 20.7845C32.1828 20.9931 31.3039 21.3946 30.6929 21.6768L29.5821 22.1897L29.5567 25.1286C29.5427 26.745 29.484 28.0603 29.4261 28.0518C29.2946 28.032 27.2126 26.9511 25.1198 25.8159C23.6093 24.9967 23.5145 24.9641 23.1595 25.142C22.9543 25.245 21.7279 25.8018 20.4341 26.3797C19.1403 26.9574 18.0395 27.4679 17.9878 27.5141C17.9361 27.5602 20.54 28.9889 23.7744 30.6891L29.6549 33.7804L32.167 32.4649C33.5484 31.7415 34.7232 31.0816 34.7773 30.9986C34.899 30.812 34.8886 19.7908 34.7667 19.8057C34.7185 19.8115 34.4109 19.9489 34.0834 20.1108ZM20.1727 33.047C19.737 33.2366 19.3014 33.4265 18.8658 33.6167C17.5507 34.1927 17.8085 34.2118 16.2439 33.4233C15.2018 32.8982 14.7526 32.7361 14.5576 32.8148C14.4114 32.8738 13.1528 33.447 11.7604 34.0886C10.3682 34.7302 9.1808 35.2552 9.12174 35.2552C8.5376 35.2552 9.50871 35.8425 13.256 37.7561L17.6507 40L19.4998 39.0759C20.5168 38.5676 22.568 37.5498 24.0583 36.8141C25.5483 36.0782 26.7491 35.4571 26.7266 35.4337C26.704 35.4103 25.4554 34.7613 23.9519 33.9914L21.2182 32.5917L20.1727 33.047Z" fill="white"/>
</svg>
