<svg width="64" height="64" viewBox="0 0 64 64" fill="none" xmlns="http://www.w3.org/2000/svg">
<circle cx="32" cy="32" r="32" fill="#5865F2"/>
<path d="M43.107 22.01C41.0046 21.0575 38.7851 20.3817 36.5052 20C36.1932 20.5519 35.9109 21.1197 35.6595 21.7011C33.231 21.339 30.7613 21.339 28.3328 21.7011C28.0813 21.1198 27.799 20.552 27.4871 20C25.2058 20.3849 22.9848 21.0623 20.8803 22.0149C16.7022 28.132 15.5696 34.0971 16.1359 39.9776C18.5827 41.7665 21.3213 43.127 24.2328 44C24.8883 43.1275 25.4684 42.2018 25.9669 41.2329C25.0201 40.883 24.1063 40.4512 23.2361 39.9427C23.4651 39.7783 23.6891 39.609 23.9056 39.4446C26.4378 40.623 29.2017 41.234 31.9999 41.234C34.7982 41.234 37.5621 40.623 40.0943 39.4446C40.3133 39.6214 40.5373 39.7908 40.7638 39.9427C39.8919 40.4521 38.9764 40.8846 38.0279 41.2354C38.5258 42.2039 39.1059 43.1287 39.7621 44C42.676 43.1305 45.4168 41.7707 47.864 39.9801C48.5285 33.1606 46.7289 27.2503 43.107 22.01ZM26.6842 36.3611C25.1061 36.3611 23.8024 34.944 23.8024 33.2005C23.8024 31.457 25.0608 30.0274 26.6792 30.0274C28.2976 30.0274 29.5913 31.457 29.5636 33.2005C29.5359 34.944 28.2925 36.3611 26.6842 36.3611ZM37.3156 36.3611C35.735 36.3611 34.4363 34.944 34.4363 33.2005C34.4363 31.457 35.6948 30.0274 37.3156 30.0274C38.9365 30.0274 40.2202 31.457 40.1925 33.2005C40.1648 34.944 38.924 36.3611 37.3156 36.3611Z" fill="white"/>
</svg>
