<svg width="52" height="44" viewBox="0 0 52 44" fill="none" xmlns="http://www.w3.org/2000/svg">
<path d="M18.6154 25.6364L26 32.9091M26 32.9091L33.3846 25.6364M26 32.9091V18.3636M28.6092 8.20606L23.3908 3.06667C23.0479 2.72861 22.6408 2.46041 22.1927 2.27738C21.7446 2.09436 21.2642 2.0001 20.7791 2H7.53846C6.06957 2 4.66084 2.57467 3.62218 3.5976C2.58351 4.62053 2 6.00791 2 7.45455V36.5455C2 37.9921 2.58351 39.3795 3.62218 40.4024C4.66084 41.4253 6.06957 42 7.53846 42H44.4615C45.9304 42 47.3392 41.4253 48.3778 40.4024C49.4165 39.3795 50 37.9921 50 36.5455V14.7273C50 13.2806 49.4165 11.8933 48.3778 10.8703C47.3392 9.8474 45.9304 9.27273 44.4615 9.27273H31.2209C30.242 9.27188 29.301 8.88821 28.6092 8.20606Z" stroke="#FF5C00" stroke-width="3" stroke-linecap="round" stroke-linejoin="round"/>
</svg>
