<svg width="174" height="40" viewBox="0 0 174 40" fill="none" xmlns="http://www.w3.org/2000/svg">
<path d="M51.2366 12.9309V18.4614H57.8837V20.7357H51.2366V26.3956H58.6523V28.7996H48.3217V10.5555H58.6507V12.9332L51.2366 12.9309ZM68.5737 26.2392V28.7976H66.7835C65.2834 28.7976 64.1456 28.4315 63.3698 27.6994C62.594 26.9672 62.2062 25.7486 62.2065 24.0436V17.0658H60.1864V14.559H62.2065V11.0185H65.1472V14.559H68.548V17.0658H65.1472V24.0953C65.1472 24.905 65.2964 25.4648 65.5946 25.7748C65.8927 26.0848 66.417 26.2396 67.1671 26.2392H68.5737ZM79.1855 14.3265C80.8222 14.3265 82.1346 14.8607 83.1232 15.929C84.1118 16.9973 84.6061 18.522 84.6064 20.5032V28.799H81.6915V20.8134C81.6915 19.5385 81.3676 18.5521 80.7198 17.8541C80.3754 17.4991 79.96 17.2222 79.5015 17.0417C79.0431 16.8613 78.5517 16.7815 78.0604 16.8076C77.5436 16.7846 77.0278 16.8729 76.5472 17.0668C76.0666 17.2606 75.6323 17.5555 75.2732 17.9319C74.5743 18.6814 74.2247 19.7798 74.2247 21.227V28.799H71.3097V9.67461H74.2247V17.6862C74.5616 16.6678 75.2282 15.7937 76.1168 15.2051C77.0307 14.6112 78.0992 14.3054 79.1855 14.3265ZM101.1 20.9942C101.104 21.4185 101.07 21.8424 100.997 22.2604H90.1551C90.2062 23.725 90.6067 24.8104 91.3568 25.5167C92.1124 26.2254 93.1133 26.606 94.1439 26.5764C95.0253 26.6043 95.8914 26.3412 96.6115 25.8269C97.2677 25.3542 97.7135 24.6392 97.8516 23.8368H100.971C100.797 24.8068 100.393 25.7199 99.7949 26.4987C99.1787 27.2895 98.3798 27.9152 97.4681 28.3208C96.4623 28.7708 95.3717 28.9955 94.2717 28.9794C93.0117 29.0046 91.766 28.702 90.6549 28.1008C89.607 27.5157 88.7501 26.6359 88.1873 25.568C87.567 24.3648 87.259 23.022 87.2923 21.6656C87.2607 20.3176 87.5689 18.9836 88.1873 17.7889C88.7501 16.7211 89.607 15.8412 90.6549 15.2562C91.766 14.6549 93.0117 14.3524 94.2717 14.3776C95.5307 14.3482 96.776 14.6464 97.8884 15.2433C98.8897 15.7901 99.7151 16.6151 100.267 17.621C100.828 18.654 101.115 19.816 101.099 20.9942H101.1ZM98.1589 20.9168C98.2185 20.1081 98.0546 19.2987 97.6858 18.5786C97.3625 17.9751 96.8621 17.4876 96.2537 17.183C95.6369 16.8788 94.9582 16.724 94.272 16.7309C93.2179 16.698 92.1922 17.0776 91.4082 17.7906C90.6412 18.4971 90.2235 19.5399 90.1554 20.9191L98.1589 20.9168ZM106.826 17.3503C107.29 16.4346 107.998 15.669 108.872 15.1406C109.8 14.5865 110.862 14.3047 111.94 14.3265V17.5311H111.071C109.792 17.5311 108.765 17.8455 107.99 18.4742C107.214 19.103 106.827 20.1411 106.829 21.5886V28.8006H103.914V14.559H106.829L106.826 17.3503ZM118.742 14.3782C120.396 14.3782 121.72 14.8047 122.717 15.6576C123.726 16.5307 124.377 17.7513 124.545 19.0825H121.785C121.692 18.3579 121.342 17.692 120.8 17.2087C120.2 16.7128 119.439 16.4596 118.665 16.498C118.053 16.4584 117.448 16.6469 116.964 17.0279C116.765 17.2065 116.607 17.428 116.503 17.6762C116.399 17.9243 116.352 18.1928 116.364 18.4621C116.355 18.664 116.39 18.8654 116.465 19.0528C116.54 19.2402 116.654 19.4093 116.798 19.5488C117.112 19.8387 117.482 20.0588 117.885 20.1949C118.494 20.3993 119.113 20.5718 119.739 20.7119C120.796 20.953 122.309 21.4615 122.309 21.4615C122.309 21.4615 123.528 22.129 123.996 22.6892C124.495 23.3413 124.745 24.1532 124.699 24.9763C124.714 25.531 124.6 26.0815 124.367 26.584C124.134 27.0865 123.788 27.5271 123.357 27.8706C122.462 28.6116 121.256 28.9821 119.74 28.9821C117.984 28.9821 116.565 28.5685 115.483 27.7415C114.944 27.3263 114.493 26.8057 114.157 26.2108C113.821 25.6159 113.607 24.9587 113.528 24.2784H116.366C116.4 24.6468 116.508 25.0043 116.684 25.3288C116.86 25.6533 117.1 25.9379 117.389 26.1651C118.067 26.6741 118.898 26.9301 119.742 26.8896C120.341 26.9242 120.932 26.7254 121.391 26.334C121.586 26.1568 121.741 25.9387 121.845 25.6948C121.948 25.4509 121.998 25.1872 121.99 24.9219C122.001 24.7021 121.966 24.4825 121.887 24.2776C121.807 24.0727 121.686 23.8871 121.53 23.7331C121.199 23.4253 120.806 23.1919 120.38 23.0481C119.759 22.8413 119.128 22.673 118.487 22.5443C117.643 22.355 116.81 22.113 115.994 21.8198C115.356 21.5795 114.792 21.1739 114.358 20.6438C113.878 20.013 113.637 19.2289 113.68 18.4341C113.664 17.8735 113.777 17.317 114.01 16.808C114.243 16.2991 114.59 15.8516 115.022 15.5009C115.918 14.7524 117.158 14.3782 118.743 14.3782H118.742ZM133.88 14.3782C135.704 14.3782 137.213 14.865 138.405 15.8384C139.611 16.8335 140.405 18.2486 140.63 19.8053H137.534C137.4 18.9694 136.957 18.2161 136.294 17.6977C135.58 17.1708 134.711 16.9022 133.827 16.9354C133.301 16.9226 132.778 17.0232 132.292 17.2303C131.808 17.4375 131.372 17.7466 131.014 18.137C130.264 18.9381 129.889 20.114 129.889 21.6647C129.889 23.2153 130.264 24.3954 131.014 25.2051C131.37 25.5989 131.805 25.911 132.29 26.1205C132.775 26.33 133.299 26.432 133.827 26.4196C134.713 26.4539 135.585 26.1811 136.297 25.6464C136.958 25.1216 137.401 24.3655 137.537 23.5273H140.633C140.406 25.0869 139.613 26.5055 138.408 27.507C137.215 28.4891 135.707 28.9801 133.883 28.9801C132.622 29.0052 131.377 28.7027 130.266 28.1015C129.218 27.5164 128.361 26.6365 127.798 25.5687C127.176 24.3656 126.868 23.0228 126.9 21.666C126.869 20.318 127.177 18.984 127.795 17.7893C128.358 16.7214 129.215 15.8416 130.263 15.2565C131.375 14.6551 132.62 14.3527 133.881 14.3782H133.88ZM149.094 14.3782C150.257 14.3435 151.401 14.6775 152.367 15.3332C153.256 15.9509 153.927 16.8378 154.285 17.866V14.559H157.2V28.799H154.285V25.491C153.927 26.5192 153.256 27.406 152.367 28.0237C151.401 28.6795 150.257 29.0134 149.094 28.9788C147.94 28.9984 146.802 28.6943 145.808 28.1001C144.828 27.4948 144.042 26.615 143.545 25.5674C142.975 24.349 142.695 23.0125 142.727 21.665C142.696 20.3259 142.977 18.9981 143.545 17.7883C144.042 16.7406 144.828 15.8608 145.808 15.2555C146.803 14.6616 147.941 14.3579 149.095 14.3782H149.094ZM149.989 16.9627C149.413 16.9364 148.838 17.0346 148.302 17.2507C147.766 17.4668 147.282 17.796 146.882 18.2161C146.107 19.0516 145.719 20.2017 145.719 21.6663C145.719 23.1309 146.107 24.2808 146.883 25.1162C147.283 25.5366 147.767 25.8659 148.303 26.0822C148.839 26.2986 149.414 26.397 149.99 26.3709C150.762 26.3833 151.522 26.1822 152.189 25.7893C152.842 25.397 153.373 24.8287 153.724 24.1484C154.113 23.3816 154.306 22.5288 154.286 21.6673C154.303 20.8102 154.11 19.9622 153.724 19.1991C153.376 18.5132 152.844 17.94 152.189 17.5449C151.523 17.1517 150.762 16.9503 149.99 16.9624L149.989 16.9627ZM168.579 14.3282C170.216 14.3282 171.528 14.8623 172.517 15.9306C173.505 16.9989 174 18.5236 174 20.5048V28.799H171.085V20.8134C171.085 19.5385 170.761 18.5521 170.113 17.8541C169.769 17.4991 169.354 17.2222 168.895 17.0417C168.437 16.8613 167.945 16.7815 167.454 16.8076C166.937 16.7846 166.421 16.8729 165.941 17.0668C165.46 17.2606 165.026 17.5555 164.667 17.9319C163.968 18.6814 163.618 19.7798 163.618 21.227V28.799H160.703V14.559H163.618V17.6875C163.955 16.6691 164.622 15.795 165.51 15.2065C166.425 14.6119 167.493 14.3056 168.58 14.3265L168.579 14.3282Z" fill="white"/>
<path d="M8.24038 19.0123C8.24041 18.7886 8.28417 18.5672 8.36911 18.3606C8.45406 18.1541 8.57853 17.9666 8.73538 17.8088C8.89227 17.6511 9.07839 17.5262 9.28315 17.4413C9.4879 17.3564 9.70722 17.3133 9.92853 17.3143L12.7275 17.3236C13.1737 17.3236 13.6017 17.5028 13.9172 17.8217C14.2328 18.1406 14.4101 18.5731 14.4101 19.0242V29.7203C14.7252 29.6258 15.1298 29.525 15.5726 29.4197C15.8802 29.3466 16.1544 29.1707 16.3506 28.9204C16.5468 28.6701 16.6535 28.3602 16.6534 28.0408V14.7727C16.6534 14.3216 16.8307 13.889 17.1462 13.5701C17.4618 13.2511 17.8898 13.0719 18.3361 13.0718H21.1405C21.5868 13.0719 22.0148 13.2511 22.3303 13.5701C22.6459 13.889 22.8231 14.3216 22.8231 14.7727V27.0868C22.8231 27.0868 23.5253 26.7996 24.2092 26.5079C24.4633 26.3993 24.6801 26.2175 24.8326 25.9851C24.9852 25.7528 25.0666 25.4803 25.0668 25.2015V10.5212C25.0668 10.0703 25.2441 9.63774 25.5595 9.31883C25.875 8.99992 26.3029 8.82074 26.7491 8.82064H29.5536C29.9999 8.82064 30.4278 8.99979 30.7434 9.31873C31.0589 9.63764 31.2362 10.0702 31.2362 10.5212V22.6101C33.6676 20.8291 36.1316 18.6873 38.0869 16.1117C38.3707 15.7378 38.5584 15.2988 38.6333 14.8339C38.7083 14.3689 38.6682 13.8924 38.5167 13.4469C37.6115 10.8149 36.1729 8.40287 34.2925 6.36513C32.4121 4.32743 30.1316 2.70886 27.5968 1.61305C25.062 0.517246 22.3287 -0.0316773 19.572 0.00141171C16.8152 0.0345003 14.0957 0.648874 11.5874 1.80521C9.07901 2.96155 6.83713 4.63438 5.00519 6.71668C3.17325 8.79894 1.79158 11.2448 0.948608 13.8978C0.105638 16.5507 -0.180072 19.3523 0.109758 22.1233C0.399588 24.8942 1.25858 27.5735 2.63176 29.9897C2.87097 30.4065 3.2229 30.7456 3.6462 30.9673C4.06949 31.189 4.54658 31.2839 5.02145 31.2411C5.55191 31.194 6.21238 31.1272 6.99764 31.034C7.33947 30.9947 7.65508 30.8298 7.8843 30.5705C8.11356 30.3112 8.24041 29.9758 8.2407 29.6281L8.24038 19.0123Z" fill="white"/>
<path d="M8.17916 36.168C11.1352 38.3415 14.6287 39.6463 18.2729 39.9377C21.9172 40.2288 25.5702 39.4958 28.8277 37.8189C32.0852 36.142 34.8201 33.5872 36.7301 30.4369C38.6398 27.2866 39.6503 23.6636 39.6493 19.9689C39.6493 19.5079 39.6281 19.0518 39.5978 18.5983C32.3581 29.5111 18.9907 34.613 8.17977 36.1664" fill="white"/>
</svg>
