<svg width="170" height="40" viewBox="0 0 170 40" fill="none" xmlns="http://www.w3.org/2000/svg">
<g clip-path="url(#clip0_73_2)">
<path d="M45.3596 34.5517V14.6013H60.1634V20.2684H52.7904V21.7719H59.7875V27.2944H52.7904V28.8268H60.4525V34.5517H45.3596Z" fill="white"/>
<path d="M62.0717 34.5517V14.6013H69.5314V34.5517H62.0717Z" fill="white"/>
<path d="M107.494 19.6034C105.094 19.6034 103.591 18.2734 103.591 16.1627C103.591 14.052 105.094 12.722 107.494 12.722C109.894 12.722 111.397 14.052 111.397 16.1627C111.397 18.2734 109.894 19.6034 107.494 19.6034ZM103.764 34.5517V19.9503H111.224V34.5517H103.764Z" fill="white"/>
<path d="M144.099 19.1986C142.046 19.1986 140.571 19.9793 139.559 21.0491V19.5745H132.62V39.5249H140.051V35.7083C140.051 34.3782 140.022 33.8867 139.964 33.4819C140.311 33.9156 141.41 34.8698 144.099 34.8698C148.32 34.8698 150.922 31.429 150.922 27.0342C150.922 22.6393 148.32 19.1986 144.099 19.1986ZM142.017 30.5327C139.617 30.5327 138.113 29.2027 138.113 27.092C138.113 24.9813 139.617 23.6513 142.017 23.6513C144.417 23.6513 145.92 24.9813 145.92 27.092C145.92 29.2027 144.417 30.5327 142.017 30.5327Z" fill="white"/>
<path d="M160.377 19.2564C155.259 19.2564 151.471 22.0032 151.471 27.092C151.471 32.1808 155.259 34.9276 160.377 34.9276C165.495 34.9276 169.282 32.1519 169.282 27.092C169.282 22.0321 165.495 19.2564 160.377 19.2564ZM160.377 30.5327C157.977 30.5327 156.473 29.2027 156.473 27.092C156.473 24.9813 157.977 23.6513 160.377 23.6513C162.777 23.6513 164.28 24.9813 164.28 27.092C164.28 29.2027 162.777 30.5327 160.377 30.5327Z" fill="white"/>
<path d="M124.553 19.1986C122.5 19.1986 121.025 19.9793 120.013 21.0491V19.5745H113.074V39.5249H120.505V35.7083C120.505 34.3782 120.476 33.8867 120.418 33.4819C120.765 33.9156 121.864 34.8698 124.553 34.8698C128.774 34.8698 131.377 31.429 131.377 27.0342C131.377 22.6393 128.774 19.1986 124.553 19.1986ZM122.471 30.5327C120.071 30.5327 118.568 29.2027 118.568 27.092C118.568 24.9813 120.071 23.6513 122.471 23.6513C124.871 23.6513 126.374 24.9813 126.374 27.092C126.374 29.2027 124.871 30.5327 122.471 30.5327Z" fill="white"/>
<path d="M94.1078 21.7719H84.9133V27.2944H94.1078V21.7719Z" fill="white"/>
<path d="M84.9134 27.6703V21.5984V14.6013H77.4238V34.5517H84.9134V27.6703Z" fill="white"/>
<path d="M94.1079 14.6013V21.5984V27.6703V34.5517H101.597V14.6013H94.1079Z" fill="white"/>
<path d="M34.3628 23.9211C36.0417 25.1432 37.9298 27.2876 37.366 30.5539C36.3954 36.1718 31.3905 33.9252 31.3905 33.9252C28.3767 38.1524 18.8786 37.6532 18.8786 37.6532C18.8786 37.6532 9.38053 38.1524 6.36677 33.9252C6.36677 33.9252 1.36183 36.1718 0.391297 30.5539C-0.173481 27.2867 1.71554 25.1423 3.39445 23.9211C4.60304 23.0412 5.70272 22.6383 5.70272 22.6383C5.70272 22.6383 6.62217 18.5528 12.6988 18.6039C18.7765 18.655 18.8786 21.0317 18.8786 21.0317C18.8786 21.0317 18.9808 18.655 25.0575 18.6039C31.1351 18.5528 32.0546 22.6383 32.0546 22.6383C32.0546 22.6383 33.1542 23.0412 34.3628 23.9202V23.9211Z" fill="#477DB2"/>
<path d="M31.6787 15.9044C34.1036 19.081 34.359 23.8412 34.3628 23.9202C33.1542 23.0412 32.0546 22.6384 32.0546 22.6384C32.0546 22.6384 31.1351 18.5529 25.0575 18.604C18.9808 18.6551 18.8787 21.0317 18.8787 21.0317C18.8787 21.0317 18.7765 18.6551 12.6989 18.604C6.62219 18.5529 5.70274 22.6384 5.70274 22.6384C5.70274 22.6384 4.60306 23.0412 3.39447 23.9202C3.39833 23.8412 3.65276 19.081 6.07861 15.9044C8.5247 12.7008 8.11316 12.5928 8.11316 12.5928C8.11316 12.5928 2.63693 11.2725 5.51576 8.04762C8.39459 4.8228 10.1699 10.3636 10.1699 10.3636C10.1699 10.3636 13.7947 8.56711 18.8787 8.56711C23.9626 8.56711 27.5874 10.3636 27.5874 10.3636C27.5874 10.3636 29.3627 4.8228 32.2415 8.04762C35.1204 11.2725 29.6441 12.5928 29.6441 12.5928C29.6441 12.5928 29.2326 12.7008 31.6787 15.9044Z" fill="#518FCC"/>
<path d="M3.39447 23.9202C4.60306 23.0412 5.70274 22.6383 5.70274 22.6383C5.70274 22.6383 6.62219 18.5528 12.6989 18.6039C18.7765 18.655 18.8787 21.0317 18.8787 21.0317C18.8787 21.0317 18.9808 18.655 25.0575 18.6039C31.1351 18.5528 32.0546 22.6383 32.0546 22.6383C32.0546 22.6383 33.1542 23.0412 34.3628 23.9202" stroke="#000A14" stroke-width="0.578271" stroke-linecap="round" stroke-linejoin="round"/>
<path d="M34.3628 23.9211C36.0417 25.1432 37.9298 27.2876 37.366 30.5539C36.3954 36.1718 31.3905 33.9252 31.3905 33.9252C28.3767 38.1524 18.8786 37.6532 18.8786 37.6532C18.8786 37.6532 9.38053 38.1524 6.36677 33.9252C6.36677 33.9252 1.36183 36.1718 0.391297 30.5539C-0.173481 27.2867 1.71554 25.1423 3.39445 23.9211" stroke="#000A14" stroke-width="0.578271" stroke-linecap="round" stroke-linejoin="round"/>
<path d="M34.3628 23.9212C34.359 23.8412 34.1036 19.081 31.6787 15.9044C29.2326 12.7008 29.6441 12.5928 29.6441 12.5928C29.6441 12.5928 35.1204 11.2725 32.2415 8.04762C29.3627 4.8228 27.5874 10.3636 27.5874 10.3636C27.5874 10.3636 23.9626 8.56711 18.8787 8.56711C13.7947 8.56711 10.1699 10.3636 10.1699 10.3636C10.1699 10.3636 8.39459 4.8228 5.51576 8.04762C2.63693 11.2725 8.11317 12.5928 8.11317 12.5928C8.11317 12.5928 8.5247 12.7008 6.07861 15.9044C3.65276 19.081 3.39833 23.8412 3.39447 23.9202" stroke="#000A14" stroke-width="0.578271" stroke-linecap="round" stroke-linejoin="round"/>
<path d="M12.243 13.8833C12.7943 13.8342 13.5171 13.8766 13.8043 14.7218C14.4876 16.7313 14.6958 16.3583 15.7936 16.2697C15.7936 16.2697 14.9117 17.1718 13.6781 16.7496C13.6781 16.7496 13.4265 17.4079 12.3644 17.4628C11.3023 17.5178 10.6595 17.1805 10.6595 15.6731C10.6595 14.3219 11.4498 13.9537 12.242 13.8833H12.243Z" fill="#E8E8E8"/>
<path d="M15.9651 15.8571C15.9005 16.0191 15.462 16.3275 14.8134 16.3275C13.3378 16.3439 14.051 14.5252 12.9639 14.3652C11.7832 14.1908 11.498 14.9772 11.4555 15.2413C11.365 15.8032 11.3447 17.1187 12.3316 17.2527C13.3928 17.3963 13.678 16.7496 13.678 16.7496C13.678 16.7496 14.1811 17.3173 15.1864 17.058C16.1916 16.7988 15.9651 15.8581 15.9651 15.8581V15.8571ZM12.8511 15.6461C12.6179 15.6461 12.429 15.4572 12.429 15.2239C12.429 14.9907 12.6179 14.8018 12.8511 14.8018C13.0843 14.8018 13.2732 14.9907 13.2732 15.2239C13.2732 15.4572 13.0843 15.6461 12.8511 15.6461Z" fill="#000A14"/>
<path d="M11.0691 13.7831C11.0691 13.7831 11.3043 13.094 12.1042 12.8184C12.7422 12.5986 13.1836 12.7653 13.8207 13.2039C14.3489 13.5672 14.6351 13.9778 14.6351 13.9778C14.6351 13.9778 14.1715 14.105 13.9392 13.8785C13.3359 13.2896 12.3673 12.9687 11.0691 13.7831Z" fill="#000A14"/>
<path d="M25.5134 13.8833C24.9621 13.8342 24.2392 13.8766 23.952 14.7218C23.2687 16.7313 23.0605 16.3583 21.9628 16.2697C21.9628 16.2697 22.8446 17.1718 24.0783 16.7496C24.0783 16.7496 24.3298 17.4079 25.3919 17.4628C26.454 17.5178 27.0969 17.1805 27.0969 15.6731C27.0969 14.3219 26.3066 13.9537 25.5143 13.8833H25.5134Z" fill="#E8E8E8"/>
<path d="M22.57 17.058C23.5752 17.3173 24.0783 16.7496 24.0783 16.7496C24.0783 16.7496 24.3636 17.3963 25.4247 17.2527C26.4116 17.1197 26.3904 15.8032 26.3008 15.2413C26.2584 14.9772 25.9731 14.1908 24.7924 14.3652C23.7063 14.5262 24.4195 16.3439 22.9429 16.3275C22.2943 16.3275 21.8558 16.0191 21.7912 15.8571C21.7912 15.8571 21.5638 16.7978 22.57 17.0571V17.058ZM24.484 15.2249C24.484 14.9917 24.6729 14.8028 24.9062 14.8028C25.1394 14.8028 25.3283 14.9917 25.3283 15.2249C25.3283 15.4581 25.1394 15.647 24.9062 15.647C24.6729 15.647 24.484 15.4581 24.484 15.2249Z" fill="#000A14"/>
<path d="M26.6882 13.7831C26.6882 13.7831 26.453 13.094 25.6531 12.8184C25.0151 12.5986 24.5737 12.7653 23.9366 13.2039C23.4084 13.5672 23.1222 13.9778 23.1222 13.9778C23.1222 13.9778 23.5858 14.105 23.818 13.8785C24.4214 13.2896 25.39 12.9687 26.6882 13.7831Z" fill="#000A14"/>
<path d="M14.318 22.4668C15.6789 22.4668 17.0841 23.2754 17.0841 24.7221C17.0841 26.1687 15.5006 26.8434 14.9628 26.8434C14.1609 26.8434 13.1046 26.2053 12.2546 24.6546C11.603 23.4663 13.2762 22.4659 14.319 22.4659L14.318 22.4668Z" fill="#000A14"/>
<path d="M14.9628 26.8434C15.2837 26.8434 15.9748 26.6034 16.4817 26.1041C16.4807 26.1022 16.0567 25.175 14.5956 24.8589C13.147 24.5457 12.5408 25.1008 12.5283 25.1124C13.3234 26.3306 14.2438 26.8443 14.9618 26.8443L14.9628 26.8434Z" fill="#E8E8E8"/>
<path d="M23.4383 22.4668C22.0774 22.4668 20.6722 23.2754 20.6722 24.7221C20.6722 26.1687 22.2557 26.8434 22.7935 26.8434C23.5954 26.8434 24.6517 26.2053 25.5018 24.6546C26.1533 23.4663 24.4802 22.4659 23.4373 22.4659L23.4383 22.4668Z" fill="#000A14"/>
<path d="M22.7945 26.8434C22.4736 26.8434 21.7825 26.6034 21.2756 26.1041C21.2765 26.1022 21.7006 25.175 23.1617 24.8589C24.6103 24.5457 25.2165 25.1008 25.229 25.1124C24.4339 26.3306 23.5135 26.8443 22.7955 26.8443L22.7945 26.8434Z" fill="#E8E8E8"/>
<path d="M15.2384 11.9413C14.5078 11.9413 13.9151 11.657 13.5682 11.1394C13.2222 10.6219 13.1769 9.95204 13.4448 9.30149C13.9835 7.99267 15.0871 7.27175 16.553 7.27175C17.0214 7.27175 17.4773 7.37777 17.9187 7.48186C16.8518 7.10887 15.8196 6.22219 15.8196 4.7688C15.8196 2.83545 16.978 1.09292 17.0272 1.01967L17.3163 0.59079L17.5303 1.06208C17.5341 1.06979 17.9129 1.87744 18.7543 2.34102C19.5041 2.75449 21.2264 3.70478 22.0504 5.09745L21.9425 4.79964L22.4253 4.87385C22.4572 4.87867 23.2195 4.99915 23.9915 5.39815C25.0603 5.9504 25.6251 6.76577 25.6251 7.7575C25.6251 8.74924 25.0758 9.60604 24.0358 10.2412C23.1916 10.7568 22.2239 10.992 21.6823 10.992C21.6196 10.992 21.5618 10.9891 21.5088 10.9833L21.1416 10.9418L21.2698 10.5959C21.3112 10.4831 21.3488 10.3472 21.3748 10.2074C20.9739 10.8339 20.2462 11.4401 19.0694 11.4401C18.3553 11.4401 17.7876 11.2319 17.3809 10.8223C17.2537 10.6942 17.1534 10.5563 17.0734 10.4176C17.1014 10.619 17.1949 10.8223 17.4011 10.992L17.6903 11.2291L17.3886 11.4498C17.3607 11.47 16.6947 11.9432 15.2374 11.9432L15.2384 11.9413Z" fill="#FF5C00"/>
<path d="M17.2681 1.1816C17.2681 1.1816 17.6739 2.07406 18.6155 2.59354C19.5571 3.11302 21.9916 4.4604 22.2027 6.39182C22.2027 6.39182 22.5111 5.51478 22.381 5.15818C22.381 5.15818 25.336 5.61308 25.336 7.75558C25.336 9.89808 22.6856 10.7009 21.6823 10.7009C21.6312 10.7009 21.5839 10.699 21.5415 10.6942C21.5415 10.6942 21.9434 9.60605 21.4721 9.23306C21.4721 9.23306 21.0992 11.1491 19.0694 11.1491C17.0397 11.1491 17.0561 9.31498 17.0561 9.31498C17.0561 9.31498 16.3255 10.4841 17.218 11.2146C17.218 11.2146 16.6176 11.6531 15.2374 11.6531C13.8573 11.6531 13.2568 10.5168 13.7117 9.41329C14.1667 8.30976 15.1083 7.56282 16.553 7.56282C17.4127 7.56282 18.283 7.95894 19.0492 7.95894C19.5716 7.95894 20.0448 7.77486 20.4322 7.15707C20.4322 7.15707 20.1402 7.40091 19.0685 7.40091C17.9967 7.40091 16.1077 6.63759 16.1077 4.77073C16.1077 2.90388 17.2662 1.18352 17.2662 1.18352M17.3645 0.00192261L16.7862 0.860656C16.7351 0.936795 15.5294 2.75064 15.5294 4.77073C15.5294 5.72874 15.9342 6.46218 16.5087 6.98455C14.9618 6.99901 13.7493 7.8028 13.1768 9.19258C12.8761 9.92313 12.932 10.7115 13.3272 11.3013C13.7291 11.9008 14.4066 12.2314 15.2374 12.2314C16.7621 12.2314 17.4821 11.7379 17.5592 11.682L17.8319 11.4825C18.1876 11.6454 18.601 11.7283 19.0685 11.7283C19.8087 11.7283 20.3869 11.5115 20.8303 11.1963L21.475 11.2705C21.5387 11.2773 21.608 11.2811 21.6803 11.2811C22.8851 11.2811 25.9123 10.2325 25.9123 7.75751C25.9123 6.65108 25.2936 5.74609 24.1226 5.14179C23.3091 4.72158 22.5015 4.59436 22.4677 4.58858L22.0061 4.51726C21.0818 3.29614 19.587 2.47114 18.8931 2.08852C18.1403 1.67313 17.7963 0.950288 17.7924 0.943541L17.3645 0.00192261Z" fill="#000A14"/>
<path d="M29.3145 11.2975C29.1835 11.364 29.037 11.2387 29.0842 11.099C29.222 10.6913 29.4369 10.0504 29.5622 9.66002C29.7569 9.0538 30.1251 8.68564 30.7525 9.35739C31.3501 9.99542 31.5351 10.1641 29.3145 11.2975Z" fill="#000A14"/>
<path d="M8.41772 11.2975C8.54879 11.364 8.69529 11.2387 8.64806 11.099C8.51024 10.6913 8.29531 10.0504 8.17002 9.66002C7.97534 9.0538 7.60717 8.68564 6.97975 9.35739C6.35232 10.0292 6.19715 10.1641 8.41772 11.2975Z" fill="#000A14"/>
<path d="M37.1771 29.3135C37.1771 29.3135 36.5275 30.8074 34.6664 30.8074C32.8053 30.8074 32.7186 29.5737 31.3115 30.9153C29.9043 32.2569 26.0212 35.2446 18.8786 35.2446C11.736 35.2446 7.85292 32.2579 6.44579 30.9153C5.03866 29.5728 4.95192 30.8074 3.09085 30.8074C1.22978 30.8074 0.58019 29.3135 0.58019 29.3135C0.493449 30.8719 0.58019 31.9976 2.20321 33.4906C3.82622 34.9844 6.42362 33.5985 6.42362 33.5985C9.59544 38.0801 18.8777 37.4083 18.8777 37.4083C18.8777 37.4083 28.1608 38.0811 31.3317 33.5985C31.3317 33.5985 33.9291 34.9835 35.5521 33.4906C37.1751 31.9967 37.2619 30.8719 37.1751 29.3135H37.1771Z" fill="#3D6B99"/>
<path d="M18.3254 20.4901C17.9274 19.7518 15.2953 18.47 11.099 18.9731C7.52042 19.402 6.35617 21.7112 6.09113 22.383C6.06318 22.4302 6.04005 22.4899 6.02559 22.567C5.95331 22.9497 5.36829 22.9824 4.29752 23.6638C3.22579 24.3452 0.644774 26.0502 0.5802 29.3135C0.5802 29.3135 1.63169 26.2323 4.06621 24.8483C5.69887 23.9202 6.59519 23.8797 6.83613 22.8138C7.14069 21.4702 7.81052 20.9797 9.07694 20.439C13.4689 18.5644 18.3254 20.4891 18.3254 20.4891V20.4901Z" fill="#518FCC"/>
<path d="M19.4328 20.4901C19.8308 19.7518 22.4629 18.47 26.6593 18.9731C30.2378 19.402 31.4021 21.7112 31.6671 22.383C31.695 22.4302 31.7182 22.4899 31.7326 22.567C31.8049 22.9497 32.3899 22.9824 33.4607 23.6638C34.5324 24.3452 37.1135 26.0502 37.178 29.3135C37.178 29.3135 36.1265 26.2323 33.692 24.8483C32.0594 23.9202 31.163 23.8797 30.9221 22.8138C30.6175 21.4702 29.9477 20.9797 28.6813 20.439C24.2893 18.5644 19.4328 20.4891 19.4328 20.4891V20.4901Z" fill="#518FCC"/>
<path d="M13.2376 11.1635C13.2376 11.1635 14.4828 13.6858 17.8281 12.9581C17.8281 12.9581 19.8318 14.0192 20.998 12.4319C20.998 12.4319 23.9578 12.7827 25.0989 9.74774C25.0989 9.74774 23.2379 11.6503 20.8091 11.1375C20.8091 11.1375 19.7567 12.1254 17.8281 11.4691C17.8281 11.4691 15.0148 13.3089 13.2376 11.1645V11.1635Z" fill="#3D6B99"/>
<path d="M24.2826 37.445C24.2826 37.445 25.1837 38.8059 25.7244 39.2087C26.2651 39.6116 26.4453 39.9431 27.624 39.4998C28.8027 39.0564 28.8991 38.6401 28.5946 37.5722C28.29 36.5043 28.1927 36.3935 28.1927 36.3935C28.1927 36.3935 26.9446 36.9988 24.2826 37.445Z" fill="white" stroke="#000A14" stroke-width="0.578271" stroke-miterlimit="10"/>
<path d="M13.5133 37.445C13.5133 37.445 12.6121 38.8059 12.0714 39.2087C11.5308 39.6106 11.3505 39.9431 10.1718 39.4998C8.99311 39.0564 8.89674 38.6401 9.20129 37.5722C9.50585 36.5043 9.60319 36.3935 9.60319 36.3935C9.60319 36.3935 10.8513 36.9988 13.5133 37.445Z" fill="white" stroke="#000A14" stroke-width="0.578271" stroke-miterlimit="10"/>
</g>
<defs>
<clipPath id="clip0_73_2">
<rect width="169.282" height="40" fill="white"/>
</clipPath>
</defs>
</svg>
