<svg width="64" height="64" viewBox="0 0 64 64" fill="none" xmlns="http://www.w3.org/2000/svg">
<circle cx="32" cy="32" r="32" fill="#2BA6E1"/>
<path fill-rule="evenodd" clip-rule="evenodd" d="M27.3186 42.5293C27.3861 41.4962 27.4493 40.4978 27.5179 39.4984C27.5907 38.4235 27.6764 37.3486 27.7364 36.2727C27.7536 35.9678 27.8575 35.7496 28.1007 35.5395C32.1786 32.0558 36.2479 28.5629 40.3193 25.0721C40.3868 25.0139 40.4704 24.966 40.5186 24.8956C40.6097 24.758 40.6815 24.608 40.7608 24.4643C40.5701 24.4275 40.3665 24.3317 40.1929 24.3684C39.9465 24.4214 39.7118 24.553 39.4943 24.6835C34.4233 27.7277 29.3543 30.7759 24.2907 33.8313C24.0261 33.9904 23.8054 34.0271 23.5 33.9322C21.3732 33.2755 19.2411 32.6422 17.1132 31.9925C16.8561 31.914 16.5946 31.8141 16.3728 31.6723C15.9368 31.3939 15.8639 30.9635 16.2571 30.6403C16.6311 30.3323 17.0778 30.0692 17.5386 29.8938C19.5882 29.1116 21.6539 28.3661 23.7154 27.6104C30.4547 25.1343 37.194 22.6602 43.9333 20.1851C44.0415 20.1453 44.1519 20.1066 44.2622 20.0729C45.1472 19.8119 45.9615 20.2708 45.9969 21.1458C46.0215 21.7648 45.8972 22.4001 45.7611 23.012C44.3179 29.5246 42.8619 36.0351 41.4036 42.5446C41.0661 44.0519 39.9904 44.4221 38.6747 43.4971C36.4665 41.9449 34.2604 40.3918 32.0297 38.8223C31.9407 38.8947 31.8518 38.9599 31.7715 39.0334C30.7065 40.0165 29.6415 41.0006 28.5786 41.9858C28.2432 42.2958 27.8768 42.5364 27.3186 42.5293Z" fill="white"/>
</svg>
