<svg width="33" height="40" viewBox="0 0 33 40" fill="none" xmlns="http://www.w3.org/2000/svg">
<path d="M15.5673 19.1398C16.3975 20.6452 14.5294 21.0753 13.6992 21.1828C12.4538 21.2903 12.1424 20.5376 12.35 19.5699C12.4538 19.2473 12.6614 18.9247 12.8689 18.7097C13.0765 18.4946 13.4916 18.2796 13.803 18.2796C14.1143 18.2796 14.5294 18.2796 14.737 18.4946C15.1521 18.6022 15.3597 18.8172 15.5673 19.1398Z" fill="#FF5C00"/>
<path d="M20.5488 16.4516C19.6148 23.9785 32.2762 22.3656 32.0687 28.2796C33.3141 26.5591 33.833 22.043 30.2006 19.6774C26.8795 17.5269 22.6245 18.7097 20.5488 16.4516Z" fill="#FF5C00"/>
<path d="M27.9174 13.5484C27.8136 13.4409 27.7099 13.4409 27.7099 13.3334C27.7099 13.4409 27.8136 13.5484 27.9174 13.5484Z" fill="#FF5C00"/>
<path d="M30.8234 19.0323C30.7196 18.8172 30.6158 18.6021 30.4082 18.3871C29.9931 17.7419 29.3704 17.3118 28.6439 17.2043C28.2288 17.0968 27.7099 16.9892 27.191 16.9892C26.6721 16.9892 26.2569 16.8817 25.738 16.8817C24.7002 16.7742 23.7661 16.6667 22.7283 16.4516C22.5208 16.3441 22.2094 16.3441 22.0018 16.2366C21.8981 16.2366 21.7943 16.129 21.5867 16.129C21.4829 16.0215 21.3792 16.0215 21.1716 15.914C20.6527 15.6989 20.2375 15.2688 19.9262 14.9462C19.1997 14.1936 18.577 13.3333 17.9543 12.5806C17.3316 11.7204 16.8127 10.9677 16.0862 10.2151C15.4636 9.46236 14.6333 8.8172 13.803 8.38709C12.9728 7.95699 11.935 7.63441 11.0009 7.52688C12.0387 7.41935 13.0766 7.52688 14.0106 7.95699C14.9446 8.3871 15.8787 8.92473 16.6052 9.67742C17.1241 10.1075 17.5392 10.6452 17.9543 11.1828C21.1716 10.5376 23.6624 11.0753 25.6342 12.2581C26.2569 12.5806 26.8796 13.0107 27.3985 13.5484C27.5023 13.6559 27.6061 13.6559 27.6061 13.7634C28.0212 14.1935 28.4364 14.6237 28.7477 15.0538C30.2007 16.4516 30.8234 18.0645 30.8234 19.0323Z" fill="#FF5C00"/>
<path d="M11.3122 8.38709C12.1425 8.49461 12.9727 8.81719 13.4916 9.46235C14.0105 10.1075 14.2181 10.9677 14.4257 11.7204C14.5295 12.3656 14.6332 13.0107 14.8408 13.5484C14.9446 13.871 15.1522 14.086 15.2559 14.3011C15.3597 14.5161 15.5673 14.7312 15.6711 14.9462V15.1613C15.3597 15.4839 14.6332 15.1613 14.3219 14.9462C13.803 14.7312 13.3879 14.3011 12.9727 13.871C11.8311 12.5806 11.2084 10.6452 11.2084 8.92472C11.2084 8.81719 11.3122 8.60214 11.3122 8.38709Z" fill="#FF5C00"/>
<path d="M24.8039 23.4409C23.0396 28.4946 31.0308 31.9355 28.0211 37.0968C31.0308 35.8064 32.4838 31.8279 31.2384 28.7097C30.2006 25.914 26.8795 24.8387 24.8039 23.4409Z" fill="#FF5C00"/>
<path d="M14.3219 30C14.8408 29.6774 15.3597 29.3549 15.8786 29.0323C16.3975 28.8172 17.0202 28.6022 17.6429 28.4946C18.7845 28.2796 20.0299 28.1721 20.964 27.742C21.4829 27.5269 21.898 27.3118 22.3131 26.8817C22.7283 26.5592 22.9358 26.1291 23.1434 25.5914C23.351 25.0538 23.351 24.5161 23.351 23.9785C23.351 23.3334 23.1434 22.7957 22.9358 22.2581C23.351 22.6882 23.6623 23.3334 23.8699 23.9785C24.0774 24.6237 24.0774 25.2688 23.9737 25.914C23.8699 26.5592 23.4548 27.2043 23.0396 27.742C22.6245 28.1721 22.0018 28.6022 21.3791 28.8172C20.7564 29.0323 20.1337 29.1398 19.511 29.2473C18.8883 29.2473 18.3694 29.3549 17.7467 29.3549C16.6051 29.3549 15.4635 29.5699 14.3219 30Z" fill="#FF5C00"/>
<path d="M25.5304 38.9247C25.3228 39.0323 25.219 39.2473 25.0115 39.3548C24.8039 39.4624 24.5963 39.5699 24.3888 39.6774C23.9736 39.8925 23.4547 40 22.9358 40C21.5866 40 20.6526 38.9247 20.1337 37.7419C19.7186 36.9892 19.511 36.129 19.0959 35.3763C18.4732 34.3011 17.3316 33.4409 16.0862 33.5484C15.5673 33.6559 15.0483 33.871 14.8408 34.3011C14.1143 35.4839 15.1521 37.2043 16.6051 36.9893C16.7089 36.9893 16.8126 36.9893 16.9164 36.8817C17.0202 36.8817 17.124 36.7742 17.2278 36.6667C17.4353 36.4516 17.5391 36.2366 17.6429 36.0215C17.7467 35.8065 17.7467 35.4839 17.7467 35.1613C17.6429 34.8387 17.5391 34.6237 17.3316 34.5161C17.6429 34.6237 17.8505 34.8387 17.9543 35.1613C17.8505 35.6989 17.8505 36.0215 17.8505 36.3441C17.7467 36.6667 17.6429 36.9892 17.4353 37.2043C17.3316 37.3118 17.2278 37.4194 17.0202 37.5269C16.9164 37.6344 16.7089 37.7419 16.6051 37.7419C16.2937 37.8495 15.9824 37.8495 15.671 37.8495C15.2559 37.7419 14.737 37.6344 14.4257 37.3118C14.0105 36.9892 13.6992 36.4516 13.284 36.129C12.8689 35.5914 12.35 35.2688 11.7273 34.9462C11.3122 34.7312 10.8971 34.6237 10.4819 34.5161C10.2744 34.5161 10.0668 34.4086 9.85923 34.4086C9.75544 34.4086 9.23653 34.3011 9.23653 34.3011C9.96301 33.6559 10.6895 33.1183 11.416 32.5807C12.2462 32.043 13.0765 31.7204 14.0105 31.3978C14.9446 31.0753 15.8786 31.0753 16.9164 31.1828C17.4353 31.2903 17.8505 31.3979 18.3694 31.6129C18.8883 31.828 19.3034 32.1505 19.7186 32.4731C20.1337 32.9032 20.445 33.3333 20.6526 33.7634C20.8602 34.1936 20.9639 34.7312 21.0677 35.2688C21.3791 36.7742 21.2753 39.1398 23.1434 39.4624C23.2472 39.4624 23.3509 39.4624 23.4547 39.4624H23.7661C23.9736 39.4624 24.1812 39.4624 24.3888 39.3548C24.7001 39.3548 25.1152 39.1398 25.5304 38.9247Z" fill="#FF5C00"/>
<path d="M12.7652 16.0215C12.6615 16.3441 12.5577 16.5591 12.4539 16.7742C12.1425 17.2043 11.7274 17.5269 11.3123 17.7419C10.8972 17.957 10.482 18.0645 9.96311 18.0645C9.85933 18.0645 9.75555 18.0645 9.65176 18.0645C9.34042 18.0645 9.13285 18.172 8.8215 18.3871C8.61394 18.6022 8.40637 18.8172 8.40637 19.1398C8.40637 19.2473 8.30259 19.4624 8.30259 19.5699C8.30259 20 8.19881 20.3226 8.19881 20.8602C8.09503 21.7204 7.88746 22.4731 7.57612 23.2258C7.16099 24.1936 6.64207 25.0538 6.74586 26.129C6.84964 26.8817 7.16099 27.4194 7.6799 27.8495C8.51016 28.8172 10.482 29.2473 10.0669 31.5054C9.75555 32.9032 7.57612 34.3011 4.56643 34.8387C4.87777 34.8387 4.1513 33.5484 4.1513 33.4409C3.83995 32.9032 3.42482 32.3656 3.21725 31.828C2.69834 30.7527 2.49078 29.3548 2.69834 28.172C2.90591 26.8817 3.83995 25.914 4.56643 24.8387C5.50047 23.6559 6.43451 22.1505 6.64208 20.5376C6.64208 20.2151 6.74586 19.6774 6.84964 19.2473C6.95342 18.7097 7.0572 18.2796 7.26477 17.7419C7.36855 17.4194 7.57612 17.2043 7.88746 16.8817C7.99125 16.7742 8.09503 16.5591 8.09503 16.4516C8.09503 16.2366 8.09503 16.129 7.99125 15.914L3.11347 6.77419L10.1707 15.8065C10.2745 15.914 10.3782 16.0215 10.482 16.0215C10.5858 16.129 10.6896 16.129 10.8972 16.129C11.0009 16.129 11.1047 16.129 11.3123 16.0215C11.4161 15.914 11.5198 15.914 11.6236 15.8065C11.7274 15.6989 11.7274 15.5914 11.7274 15.3763C11.7274 15.2688 11.7274 15.0538 11.6236 14.9462C11.2085 14.3011 10.6896 13.7634 10.1707 13.1183L4.87777 6.34409L0 0L5.2929 5.91398L10.8972 12.3656C11.5198 13.1183 12.1425 13.7634 12.7652 14.6237L12.869 14.7312V14.9462C12.869 15.3764 12.869 15.6989 12.7652 16.0215Z" fill="#FF5C00"/>
<path d="M14.4258 37.2043C14.1144 36.8817 13.8031 36.5592 13.4917 36.2366C13.8031 36.6667 14.0106 36.9893 14.4258 37.2043Z" fill="#FF5C00"/>
</svg>
