<svg width="132" height="20" fill="#ffffff" xmlns="http://www.w3.org/2000/svg"><path d="M3.15 17.425c-1.575-1.5-2.4-3.675-2.4-6.45V.625h6.3V10.75c0 1.35.225 2.4.75 3 .525.6 1.2.9 2.1.9.9 0 1.65-.3 2.1-.9.525-.6.75-1.65.75-3V.625h6.225V10.9c0 2.775-.825 4.95-2.4 6.525-1.65 1.575-3.825 2.325-6.75 2.325-2.85 0-5.1-.75-6.675-2.325zM24.225 2.5c.675 0 1.05.225 1.2.45.225.225.45.45.45 1.125s-.225.975-.45 1.125c-.225.225-.525.45-1.2.45-.675 0-.975-.225-1.2-.45-.225-.225-.45-.525-.45-1.125s.225-.9.45-1.125c.225-.15.525-.45 1.2-.45zm0-1.875c-.975 0-1.8.375-2.475.975s-.975 1.425-.975 2.475.3 1.875.975 2.475c.675.675 1.5.975 2.55.975 1.05 0 1.875-.3 2.55-.975.675-.675.975-1.5.975-2.475 0-.975-.3-1.875-.975-2.475-.75-.6-1.575-.975-2.625-.975zm10.95 4.95H29.7V.625h17.25V5.5h-5.475v13.8h-6.3V5.575zm17.55 12.975a9.799 9.799 0 0 1-3.75-3.45c-.9-1.5-1.35-3.15-1.35-5.025 0-1.875.45-3.525 1.35-5.025.9-1.5 2.175-2.625 3.75-3.45C54.3.625 56.1.25 58.125.25c2.025 0 3.825.45 5.4 1.275a9.799 9.799 0 0 1 3.75 3.45c.9 1.425 1.35 3.15 1.35 5.025 0 1.875-.45 3.525-1.35 5.025-.9 1.5-2.175 2.625-3.75 3.45-1.575.825-3.375 1.275-5.4 1.275-2.025 0-3.825-.375-5.4-1.2zm7.5-4.425a4.03 4.03 0 0 0 1.5-1.65c.375-.675.525-1.5.525-2.475 0-.975-.15-1.8-.525-2.475s-.9-1.275-1.5-1.65-1.35-.6-2.1-.6a4.032 4.032 0 0 0-3.6 2.25C54.15 8.2 54 9.025 54 10c0 .975.225 1.8.525 2.475.375.675.9 1.275 1.5 1.65s1.35.6 2.1.6c.75-.075 1.5-.225 2.1-.6zM70.95.625h9.225c2.1 0 3.9.375 5.55 1.125a9.276 9.276 0 0 1 3.75 3.225c.9 1.425 1.35 3.075 1.35 4.95s-.45 3.525-1.35 4.95c-.9 1.425-2.1 2.475-3.75 3.225-1.575.75-3.45 1.125-5.55 1.125H70.95V.625zm9 13.8c1.35 0 2.4-.375 3.225-1.125.825-.75 1.2-1.875 1.2-3.3 0-1.425-.375-2.475-1.2-3.3-.825-.75-1.875-1.125-3.225-1.125h-2.7v8.85h2.7zm25.575 1.65H98.4L97.125 19.3H90.75L98.925.625h6.225l8.1 18.75h-6.525l-1.2-3.3zm-1.725-4.5L102 6.85l-1.8 4.725h3.6zm20.4.975v6.75h-6.3v-6.9L110.85.55h6.675L121.35 7l3.825-6.45h6.075l-7.05 12z"/></svg>