<svg width="48" height="44" viewBox="0 0 48 44" fill="none" xmlns="http://www.w3.org/2000/svg">
<path d="M46 22C46 20.5534 45.4205 19.166 44.3891 18.1431C43.3576 17.1201 41.9587 16.5455 40.5 16.5455H31.3333C31.3333 18.4743 30.5607 20.3241 29.1855 21.6881C27.8102 23.052 25.9449 23.8182 24 23.8182C22.0551 23.8182 20.1898 23.052 18.8145 21.6881C17.4393 20.3241 16.6667 18.4743 16.6667 16.5455H7.5C6.04131 16.5455 4.64236 17.1201 3.61091 18.1431C2.57946 19.166 2 20.5534 2 22M46 22V36.5455C46 37.9921 45.4205 39.3795 44.3891 40.4024C43.3576 41.4253 41.9587 42 40.5 42H7.5C6.04131 42 4.64236 41.4253 3.61091 40.4024C2.57946 39.3795 2 37.9921 2 36.5455V22M46 22V14.7273M2 22V14.7273M46 14.7273C46 13.2806 45.4205 11.8933 44.3891 10.8703C43.3576 9.8474 41.9587 9.27273 40.5 9.27273H7.5C6.04131 9.27273 4.64236 9.8474 3.61091 10.8703C2.57946 11.8933 2 13.2806 2 14.7273M46 14.7273V7.45455C46 6.00791 45.4205 4.62053 44.3891 3.5976C43.3576 2.57467 41.9587 2 40.5 2H7.5C6.04131 2 4.64236 2.57467 3.61091 3.5976C2.57946 4.62053 2 6.00791 2 7.45455V14.7273" stroke="#FF5C00" stroke-width="3" stroke-linecap="round" stroke-linejoin="round"/>
</svg>
