<svg width="64" height="64" viewBox="0 0 64 64" fill="none" xmlns="http://www.w3.org/2000/svg">
<circle cx="32" cy="32" r="32" fill="white"/>
<path fill-rule="evenodd" clip-rule="evenodd" d="M40.4106 18.0913C33.213 20.523 25.5318 21.0798 17.9889 20.6804C17.9889 20.6804 17.985 21.5368 17.985 29.0243L20.0915 31.1487C19.1208 31.7793 18.1423 32.3972 17.1562 33.0028L17.1523 39.8993L23.1003 45.9018C31.0885 46.4281 39.2435 45.8393 46.8497 43.1928V34.8527L44.6774 32.6619C45.2386 32.1138 45.8011 31.5549 46.3546 30.9904C46.3546 30.3308 46.3585 24.0899 46.3585 24.0899L40.4106 18.0913ZM44.0522 30.4679V27.1241L44.0483 27.1203C38.8679 28.5793 33.6875 29.1327 28.507 29.1327C27.7472 29.1327 26.9912 29.1211 26.2315 29.0979V32.7977C26.9989 32.8209 27.7625 32.8325 28.53 32.8325C31.197 32.8325 33.864 32.6854 36.531 32.341C32.8241 35.3481 29.1133 37.9758 25.4026 40.356V43.6997C26.4387 43.7423 27.4748 43.7655 28.5109 43.7655C33.8563 43.7655 39.2017 43.1734 44.551 41.6099V37.9101C40.6714 39.0401 36.7996 39.6632 32.9238 39.9225C36.6307 37.1477 40.3414 34.0361 44.0522 30.4679Z" fill="black"/>
</svg>
